<svg width="122.000000" height="122.000000" viewBox="0 0 122 122" fill="none" xmlns="http://www.w3.org/2000/svg" xmlns:xlink="http://www.w3.org/1999/xlink">
	<desc>
			Created with Pixso.
	</desc>
	<defs>
		<filter id="filter_4_3796_dd" x="0.000000" y="0.000000" width="122.000000" height="122.000000" filterUnits="userSpaceOnUse" color-interpolation-filters="sRGB">
			<feFlood flood-opacity="0" result="BackgroundImageFix"/>
			<feColorMatrix in="SourceAlpha" type="matrix" values="0 0 0 0 0 0 0 0 0 0 0 0 0 0 0 0 0 0 127 0" result="hardAlpha"/>
			<feOffset dx="0" dy="4"/>
			<feGaussianBlur stdDeviation="3.33333"/>
			<feComposite in2="hardAlpha" operator="out" k2="-1" k3="1"/>
			<feColorMatrix type="matrix" values="0 0 0 0 0.40784 0 0 0 0 0.40784 0 0 0 0 0.40784 0 0 0 0.1 0"/>
			<feBlend mode="normal" in2="BackgroundImageFix" result="effect_dropShadow_1"/>
			<feBlend mode="normal" in="SourceGraphic" in2="effect_dropShadow_1" result="shape"/>
		</filter>
		<radialGradient id="paint_radial_4_3794_0" cx="0.000000" cy="0.000000" r="1.000000" gradientUnits="userSpaceOnUse" gradientTransform="translate(61 57) rotate(90) scale(51 51)">
			<stop stop-color="#81D9FF"/>
			<stop offset="1.000000" stop-color="#0041A1"/>
		</radialGradient>
	</defs>
	<g filter="url(#filter_4_3796_dd)">
		<circle id="Ellipse 566" cx="61.000000" cy="57.000000" r="51.000000" fill="url(#paint_radial_4_3794_0)" fill-opacity="1.000000"/>
		<path id="5" d="M57.552 68.264Q57.072 68.264 56.16 68.216L56.16 69.728Q56.928 69.896 57.84 69.896Q60.528 69.896 62.664 68.936C64.104 68.312 65.224 67.44 66.024 66.32Q66.6288 65.5018 66.9348 64.5839Q67.248 63.6441 67.248 62.6Q67.248 60.5972 66.271 59.376Q66.1124 59.1777 65.928 59C65.064 58.152 63.816 57.728 62.184 57.728Q61.08 57.728 60.096 58.016Q59.136 58.28 58.44 58.64L59.424 53.648L66 53.648L66.504 50.648L64.848 50.648L64.608 51.104L57.192 51.104L56.04 59.96L56.832 60.512C57.248 60.32 57.768 60.152 58.392 60.008C59.032 59.864 59.616 59.792 60.144 59.792Q61.776 59.792 62.64 60.584C63.216 61.112 63.504 61.976 63.504 63.176Q63.504 63.8786 63.309 64.5222Q63.111 65.1755 62.712 65.768C62.184 66.536 61.464 67.144 60.552 67.592C59.656 68.04 58.656 68.264 57.552 68.264Z" fill="#000710" fill-opacity="1.000000" fill-rule="evenodd"/>
	</g>
</svg>
