<svg width="137" height="120" viewBox="0 0 137 120" fill="none" xmlns="http://www.w3.org/2000/svg">
<path d="M34.25 0L0 60L34.25 120H102.75L137 60L102.75 0H34.25ZM50.92 92H86.09L98.37 114H38.64L50.92 92ZM84.21 87H52.8L37.1 60L52.8 33H84.21L99.91 60L84.21 87ZM86.09 27H50.92L38.64 6H98.37L86.09 27ZM36.76 6.96L49.04 28.24L30.83 59.85L30.88 60.01H6.31L6.25999 59.85L36.75 6.97L36.76 6.96ZM7.57 62H32.14L49.05 91.3L36.77 112.57L7.57999 62H7.57ZM100.25 112.57L87.97 91.29L104.88 62H129.45L100.26 112.57H100.25ZM130.69 60H106.12L106.17 59.84L87.96 28.27L100.24 6.98L130.73 59.85L130.68 60H130.69Z" fill="#686868"/>
</svg>
