<svg width="20" height="20" viewBox="0 0 20 20" fill="none" xmlns="http://www.w3.org/2000/svg">
<path d="M3 0.5C1.621 0.5 0.5 1.622 0.5 3C0.5 4.378 1.621 5.5 3 5.5C4.379 5.5 5.5 4.378 5.5 3C5.5 1.622 4.379 0.5 3 0.5ZM3 4.5C2.173 4.5 1.5 3.827 1.5 3C1.5 2.173 2.173 1.5 3 1.5C3.827 1.5 4.5 2.173 4.5 3C4.5 3.827 3.827 4.5 3 4.5ZM10 0.5C8.621 0.5 7.5 1.622 7.5 3C7.5 4.378 8.621 5.5 10 5.5C11.379 5.5 12.5 4.378 12.5 3C12.5 1.622 11.379 0.5 10 0.5ZM10 4.5C9.173 4.5 8.5 3.827 8.5 3C8.5 2.173 9.173 1.5 10 1.5C10.827 1.5 11.5 2.173 11.5 3C11.5 3.827 10.827 4.5 10 4.5ZM17 5.5C18.379 5.5 19.5 4.378 19.5 3C19.5 1.622 18.379 0.5 17 0.5C15.621 0.5 14.5 1.622 14.5 3C14.5 4.378 15.621 5.5 17 5.5ZM17 1.5C17.827 1.5 18.5 2.173 18.5 3C18.5 3.827 17.827 4.5 17 4.5C16.173 4.5 15.5 3.827 15.5 3C15.5 2.173 16.173 1.5 17 1.5ZM3 7.5C1.621 7.5 0.5 8.622 0.5 10C0.5 11.378 1.621 12.5 3 12.5C4.379 12.5 5.5 11.378 5.5 10C5.5 8.622 4.379 7.5 3 7.5ZM3 11.5C2.173 11.5 1.5 10.827 1.5 10C1.5 9.173 2.173 8.5 3 8.5C3.827 8.5 4.5 9.173 4.5 10C4.5 10.827 3.827 11.5 3 11.5ZM10 7.5C8.621 7.5 7.5 8.622 7.5 10C7.5 11.378 8.621 12.5 10 12.5C11.379 12.5 12.5 11.378 12.5 10C12.5 8.622 11.379 7.5 10 7.5ZM10 11.5C9.173 11.5 8.5 10.827 8.5 10C8.5 9.173 9.173 8.5 10 8.5C10.827 8.5 11.5 9.173 11.5 10C11.5 10.827 10.827 11.5 10 11.5ZM17 7.5C15.621 7.5 14.5 8.622 14.5 10C14.5 11.378 15.621 12.5 17 12.5C18.379 12.5 19.5 11.378 19.5 10C19.5 8.622 18.379 7.5 17 7.5ZM17 11.5C16.173 11.5 15.5 10.827 15.5 10C15.5 9.173 16.173 8.5 17 8.5C17.827 8.5 18.5 9.173 18.5 10C18.5 10.827 17.827 11.5 17 11.5ZM3 14.5C1.621 14.5 0.5 15.622 0.5 17C0.5 18.378 1.621 19.5 3 19.5C4.379 19.5 5.5 18.378 5.5 17C5.5 15.622 4.379 14.5 3 14.5ZM3 18.5C2.173 18.5 1.5 17.827 1.5 17C1.5 16.173 2.173 15.5 3 15.5C3.827 15.5 4.5 16.173 4.5 17C4.5 17.827 3.827 18.5 3 18.5ZM10 14.5C8.621 14.5 7.5 15.622 7.5 17C7.5 18.378 8.621 19.5 10 19.5C11.379 19.5 12.5 18.378 12.5 17C12.5 15.622 11.379 14.5 10 14.5ZM10 18.5C9.173 18.5 8.5 17.827 8.5 17C8.5 16.173 9.173 15.5 10 15.5C10.827 15.5 11.5 16.173 11.5 17C11.5 17.827 10.827 18.5 10 18.5ZM17 14.5C15.621 14.5 14.5 15.622 14.5 17C14.5 18.378 15.621 19.5 17 19.5C18.379 19.5 19.5 18.378 19.5 17C19.5 15.622 18.379 14.5 17 14.5ZM17 18.5C16.173 18.5 15.5 17.827 15.5 17C15.5 16.173 16.173 15.5 17 15.5C17.827 15.5 18.5 16.173 18.5 17C18.5 17.827 17.827 18.5 17 18.5Z" fill="#25314C"/>
</svg>
