<svg width="320" height="320" viewBox="0 0 320 320" fill="none" xmlns="http://www.w3.org/2000/svg">
<path d="M176.656 244.464H144.28C141.657 244.46 139.143 243.416 137.29 241.56C135.436 239.705 134.394 237.191 134.392 234.568L132.56 209.488C122.498 204.32 114.051 196.484 108.144 186.837C102.238 177.19 99.0992 166.104 99.0718 154.792C99.0718 120.936 126.616 93.384 160.48 93.384C194.344 93.384 221.888 120.928 221.888 154.792C221.856 166.103 218.715 177.187 212.809 186.833C206.903 196.48 198.459 204.317 188.4 209.488L186.552 234.856C186.544 240.024 182.112 244.464 176.656 244.464ZM160.472 101.384C146.312 101.401 132.738 107.033 122.725 117.046C112.713 127.058 107.081 140.633 107.064 154.792C107.088 164.983 110.017 174.955 115.506 183.542C120.994 192.128 128.817 198.972 138.056 203.272L140.192 204.264L142.376 234.28C142.384 235.616 143.232 236.464 144.28 236.464H176.656C177.696 236.464 178.544 235.616 178.544 234.568L180.736 204.264L182.88 203.28C192.118 198.976 199.939 192.13 205.427 183.543C210.916 174.956 213.845 164.983 213.872 154.792C213.855 140.634 208.224 127.06 198.213 117.048C188.203 107.036 174.63 101.403 160.472 101.384Z" fill="url(#paint0_radial_2176_33953)"/>
<path d="M177.544 271.152H143.392C140.771 271.148 138.26 270.104 136.407 268.251C134.555 266.397 133.514 263.884 133.512 261.264V251.84C133.512 246.384 137.944 241.96 143.392 241.96H177.544C183 241.96 187.432 246.392 187.432 251.84V261.264C187.43 263.886 186.387 266.4 184.533 268.254C182.679 270.107 180.166 271.15 177.544 271.152ZM143.4 249.952C142.901 249.952 142.423 250.15 142.07 250.503C141.718 250.855 141.52 251.333 141.52 251.832V261.256C141.52 262.296 142.36 263.144 143.4 263.144H177.552C178.592 263.144 179.44 262.296 179.44 261.256V251.84C179.438 251.341 179.238 250.862 178.884 250.51C178.53 250.158 178.051 249.96 177.552 249.96L143.4 249.952ZM156.472 36.848C156.472 34.6389 158.263 32.848 160.472 32.848C162.681 32.848 164.472 34.6389 164.472 36.848V78.312C164.472 80.5211 162.681 82.312 160.472 82.312C158.263 82.312 156.472 80.5212 156.472 78.312V36.848ZM244.98 76.2274C246.542 74.6658 249.074 74.666 250.635 76.2277C252.197 77.7897 252.197 80.3222 250.635 81.884L221.316 111.197C219.754 112.758 217.222 112.758 215.66 111.196C214.098 109.634 214.098 107.102 215.66 105.54L244.98 76.2274ZM235.88 161.224C235.88 159.015 237.671 157.224 239.88 157.224H281.344C283.553 157.224 285.344 159.015 285.344 161.224C285.344 163.433 283.553 165.224 281.344 165.224H239.88C237.671 165.224 235.88 163.433 235.88 161.224ZM69.3939 76.2179C70.9565 74.6531 73.4919 74.6522 75.0556 76.2159L104.364 105.524C105.926 107.086 105.926 109.618 104.364 111.18C102.802 112.742 100.27 112.742 98.7076 111.181L69.3963 81.8759C67.8339 80.3138 67.8328 77.7812 69.3939 76.2179ZM34.6558 161.224C34.6558 159.015 36.4466 157.224 38.6558 157.224H80.1278C82.3369 157.224 84.1278 159.015 84.1278 161.224C84.1278 163.433 82.3369 165.224 80.1278 165.224H38.6558C36.4466 165.224 34.6558 163.433 34.6558 161.224Z" fill="url(#paint1_radial_2176_33953)"/>
<defs>
<radialGradient id="paint0_radial_2176_33953" cx="0" cy="0" r="1" gradientUnits="userSpaceOnUse" gradientTransform="translate(160.48 168.924) rotate(90) scale(75.54 61.408)">
<stop stop-color="#0041A1"/>
<stop offset="1" stop-color="#81D9FF"/>
</radialGradient>
<radialGradient id="paint1_radial_2176_33953" cx="0" cy="0" r="1" gradientUnits="userSpaceOnUse" gradientTransform="translate(160 152) rotate(90) scale(119.152 125.344)">
<stop stop-color="#0041A1"/>
<stop offset="1" stop-color="#81D9FF"/>
</radialGradient>
</defs>
</svg>
