<svg width="12" height="12" viewBox="0 0 12 12" fill="none" xmlns="http://www.w3.org/2000/svg">
<path fill-rule="evenodd" clip-rule="evenodd" d="M6 2.25C5.00544 2.25 4.05161 2.64509 3.34835 3.34835C2.64509 4.05161 2.25 5.00544 2.25 6C2.25 6.99456 2.64509 7.94839 3.34835 8.65165C4.05161 9.35491 5.00544 9.75 6 9.75C6.99456 9.75 7.94839 9.35491 8.65165 8.65165C9.35491 7.94839 9.75 6.99456 9.75 6C9.75 5.00544 9.35491 4.05161 8.65165 3.34835C7.94839 2.64509 6.99456 2.25 6 2.25ZM0.75 6C0.75 4.60761 1.30312 3.27226 2.28769 2.28769C3.27226 1.30312 4.60761 0.75 6 0.75C7.39239 0.75 8.72774 1.30312 9.71231 2.28769C10.6969 3.27226 11.25 4.60761 11.25 6C11.25 7.39239 10.6969 8.72774 9.71231 9.71231C8.72774 10.6969 7.39239 11.25 6 11.25C4.60761 11.25 3.27226 10.6969 2.28769 9.71231C1.30312 8.72774 0.75 7.39239 0.75 6Z" fill="#000710"/>
</svg>
