<svg width="54" height="54" viewBox="0 0 54 54" fill="none" xmlns="http://www.w3.org/2000/svg">
<path fill-rule="evenodd" clip-rule="evenodd" d="M24.9998 53.5927C11.2064 52.5699 0.333252 41.0547 0.333252 26.9999C0.333252 12.2723 12.2723 0.333252 26.9999 0.333252C41.7275 0.333252 53.6666 12.2723 53.6666 26.9999C53.6666 36.3173 48.8881 44.5186 41.648 49.2867C40.4081 50.1033 38.8518 49.152 38.8518 47.6674V38.8518C38.8518 35.579 36.1986 32.9258 32.9258 32.9258C29.653 32.9258 26.9999 35.579 26.9999 38.8518V51.6666C26.9999 52.7712 26.1014 53.6744 24.9998 53.5927ZM20.3333 10.9999C22.5424 10.9999 24.3333 12.7908 24.3333 14.9999C24.3333 17.2091 22.5424 18.9999 20.3333 18.9999C18.1241 18.9999 16.3333 17.2091 16.3333 14.9999C16.3333 12.7908 18.1241 10.9999 20.3333 10.9999ZM44.3333 21.6666C44.3333 19.4574 42.5424 17.6666 40.3333 17.6666C38.1241 17.6666 36.3333 19.4574 36.3333 21.6666C36.3333 23.8757 38.1241 25.6666 40.3333 25.6666C42.5424 25.6666 44.3333 23.8757 44.3333 21.6666ZM16.3333 32.3333C18.5424 32.3333 20.3333 34.1241 20.3333 36.3333C20.3333 38.5424 18.5424 40.3333 16.3333 40.3333C14.1241 40.3333 12.3333 38.5424 12.3333 36.3333C12.3333 34.1241 14.1241 32.3333 16.3333 32.3333Z" fill="url(#paint0_radial_3121_932)"/>
<defs>
<radialGradient id="paint0_radial_3121_932" cx="0" cy="0" r="1" gradientUnits="userSpaceOnUse" gradientTransform="translate(26.9999 26.9655) rotate(90) scale(26.6323 26.6667)">
<stop stop-color="#0041A1"/>
<stop offset="1" stop-color="#81D9FF"/>
</radialGradient>
</defs>
</svg>
