<svg width="48" height="54" viewBox="0 0 48 54" fill="none" xmlns="http://www.w3.org/2000/svg">
<path fill-rule="evenodd" clip-rule="evenodd" d="M24 0.333313C25.1046 0.333313 26 1.22874 26 2.33331V4.99998C26 6.10455 25.1046 6.99998 24 6.99998C22.8955 6.99998 22 6.10455 22 4.99998V2.33331C22 1.22874 22.8955 0.333313 24 0.333313ZM40 27C40 35.8365 32.8366 43 24 43C15.1635 43 8.00004 35.8365 8.00004 27C8.00004 18.1634 15.1635 11 24 11C32.8366 11 40 18.1634 40 27ZM26 49C26 47.8954 25.1046 47 24 47C22.8955 47 22 47.8954 22 49V51.6666C22 52.7712 22.8955 53.6666 24 53.6666C25.1046 53.6666 26 52.7712 26 51.6666V49ZM0.906288 13.6667C1.45857 12.7101 2.68175 12.3824 3.63834 12.9346L5.94774 14.268C6.90433 14.8203 7.23208 16.0434 6.67979 17C6.12751 17.9566 4.90433 18.2844 3.94774 17.7321L1.63834 16.3987C0.681754 15.8465 0.354003 14.6233 0.906288 13.6667ZM44.0524 36.268C43.0958 35.7157 41.8726 36.0434 41.3204 37C40.7681 37.9566 41.0958 39.1798 42.0524 39.7321L44.3618 41.0654C45.3184 41.6177 46.5416 41.2899 47.0939 40.3334C47.6461 39.3768 47.3184 38.1536 46.3618 37.6013L44.0524 36.268ZM47.0938 13.6666C47.6461 14.6232 47.3183 15.8464 46.3617 16.3987L44.0523 17.732C43.0958 18.2843 41.8726 17.9565 41.3203 16.9999C40.768 16.0433 41.0958 14.8202 42.0523 14.2679L44.3617 12.9345C45.3183 12.3823 46.5415 12.71 47.0938 13.6666ZM5.94767 39.732C6.90426 39.1797 7.23201 37.9565 6.67973 36.9999C6.12744 36.0434 4.90426 35.7156 3.94767 36.2679L1.63827 37.6012C0.681688 38.1535 0.353938 39.3767 0.906223 40.3333C1.45851 41.2899 2.68169 41.6176 3.63827 41.0653L5.94767 39.732Z" fill="url(#paint0_radial_3322_8227)"/>
<defs>
<radialGradient id="paint0_radial_3322_8227" cx="0" cy="0" r="1" gradientUnits="userSpaceOnUse" gradientTransform="translate(24 27) rotate(90) scale(26.6667 23.3621)">
<stop stop-color="#0041A1"/>
<stop offset="1" stop-color="#81D9FF"/>
</radialGradient>
</defs>
</svg>
