<svg width="56" height="56" viewBox="0 0 56 56" fill="none" xmlns="http://www.w3.org/2000/svg">
<path fill-rule="evenodd" clip-rule="evenodd" d="M12.9999 7.66658C12.9999 5.82564 14.4923 4.33325 16.3333 4.33325H48.3333C50.1742 4.33325 51.6666 5.82564 51.6666 7.66658V23.6666C51.6666 25.5075 50.1742 26.9999 48.3333 26.9999H45.6666C44.562 26.9999 43.6666 27.8953 43.6666 28.9999C43.6666 30.1045 44.562 30.9999 45.6666 30.9999H48.3333C52.3833 30.9999 55.6666 27.7167 55.6666 23.6666V7.66658C55.6666 3.6165 52.3833 0.333252 48.3333 0.333252H16.3333C12.2832 0.333252 8.99992 3.6165 8.99992 7.66658V11.6666C8.99992 12.7712 9.89535 13.6666 10.9999 13.6666C12.1045 13.6666 12.9999 12.7712 12.9999 11.6666V7.66658ZM13.6666 23.6666C13.6666 26.6121 11.2788 28.9999 8.33325 28.9999C5.38773 28.9999 2.99992 26.6121 2.99992 23.6666C2.99992 20.7211 5.38773 18.3333 8.33325 18.3333C11.2788 18.3333 13.6666 20.7211 13.6666 23.6666ZM42.0156 22.0817C42.613 21.1525 42.3439 19.9151 41.4148 19.3178C40.4857 18.7205 39.2482 18.9895 38.6509 19.9186L28.2758 36.0578C27.2116 35.7059 26.0029 35.8162 24.9807 36.4667L16.3333 40.9999V39.6666C16.3333 35.2483 12.7515 31.6666 8.33325 31.6666C3.91497 31.6666 0.333252 35.2483 0.333252 39.6666V55.6666H16.3333V49.4798C17.0357 49.3752 17.7291 49.1275 18.3713 48.7261L29.1102 43.0144C30.3966 42.2103 31.0497 40.7719 30.9117 39.3545L42.0156 22.0817ZM19.6666 12.9999C19.6666 11.8953 20.562 10.9999 21.6666 10.9999H42.9999C44.1045 10.9999 44.9999 11.8953 44.9999 12.9999C44.9999 14.1045 44.1045 14.9999 42.9999 14.9999H21.6666C20.562 14.9999 19.6666 14.1045 19.6666 12.9999ZM21.6666 18.9999C20.562 18.9999 19.6666 19.8953 19.6666 20.9999C19.6666 22.1045 20.562 22.9999 21.6666 22.9999H32.3333C33.4378 22.9999 34.3333 22.1045 34.3333 20.9999C34.3333 19.8953 33.4378 18.9999 32.3333 18.9999H21.6666Z" fill="url(#paint0_radial_3121_4182)"/>
<defs>
<radialGradient id="paint0_radial_3121_4182" cx="0" cy="0" r="1" gradientUnits="userSpaceOnUse" gradientTransform="translate(27.9999 27.9999) rotate(90) scale(27.6667)">
<stop stop-color="#0041A1"/>
<stop offset="1" stop-color="#81D9FF"/>
</radialGradient>
</defs>
</svg>
