<svg width="54" height="56" viewBox="0 0 54 56" fill="none" xmlns="http://www.w3.org/2000/svg">
<path d="M1.03461 28.958C0.702613 28.8183 0.333252 29.0606 0.333252 29.4208V45C0.333252 50.8911 5.10888 55.6667 10.9999 55.6667H42.9999C48.891 55.6667 53.6666 50.8911 53.6666 45V29.421C53.6666 29.0608 53.2972 28.8184 52.9652 28.9582C49.4386 30.4423 44.6978 32.0564 39.0095 33.0898C37.1312 33.4311 35.7691 35.0454 34.8925 36.7414C33.5625 39.3143 30.8773 41.0731 27.7812 41.0731H26.2184C23.1223 41.0731 20.437 39.3143 19.1071 36.7413C18.2305 35.0453 16.8684 33.431 14.9901 33.0897C9.30189 32.0562 4.56119 30.4422 1.03461 28.958Z" fill="url(#paint0_radial_3121_7807)"/>
<path fill-rule="evenodd" clip-rule="evenodd" d="M42.9999 13H10.9999C5.10888 13 0.333252 17.7756 0.333252 23.6667V24.0579C0.333252 24.3923 0.496023 24.7011 0.782279 24.8741C2.59952 25.9726 9.81747 29.9818 20.3284 31.2857V35.8377C20.3284 36.9423 21.2238 37.8377 22.3284 37.8377H31.6708C32.7754 37.8377 33.6708 36.9423 33.6708 35.8377V31.2857C44.1821 29.982 51.4003 25.9726 53.2176 24.8741C53.5038 24.7011 53.6666 24.3923 53.6666 24.0579V23.6667C53.6666 17.7756 48.891 13 42.9999 13ZM24.2002 29.2516C24.0898 29.2516 24.0002 29.3412 24.0002 29.4516V33.7551C24.0002 34.197 24.3584 34.5551 24.8002 34.5551H29.1993C29.6411 34.5551 29.9993 34.197 29.9993 33.7551V29.4516C29.9993 29.3412 29.9098 29.2516 29.7993 29.2516H24.2002Z" fill="url(#paint1_radial_3121_7807)"/>
<path fill-rule="evenodd" clip-rule="evenodd" d="M24.333 4.33331C21.0193 4.33331 18.333 7.0196 18.333 10.3333V13C18.333 14.1045 17.4376 15 16.333 15C15.2284 15 14.333 14.1045 14.333 13V10.3333C14.333 4.81047 18.8102 0.333313 24.333 0.333313H29.6663C35.1892 0.333313 39.6663 4.81047 39.6663 10.3333V13C39.6663 14.1045 38.7709 15 37.6663 15C36.5618 15 35.6663 14.1045 35.6663 13V10.3333C35.6663 7.0196 32.98 4.33331 29.6663 4.33331H24.333Z" fill="url(#paint2_radial_3121_7807)"/>
<defs>
<radialGradient id="paint0_radial_3121_7807" cx="0" cy="0" r="1" gradientUnits="userSpaceOnUse" gradientTransform="translate(26.9999 42.1622) rotate(90) scale(13.5045 26.6667)">
<stop stop-color="#0041A1"/>
<stop offset="1" stop-color="#81D9FF"/>
</radialGradient>
<radialGradient id="paint1_radial_3121_7807" cx="0" cy="0" r="1" gradientUnits="userSpaceOnUse" gradientTransform="translate(26.9999 25.4188) rotate(90) scale(12.4188 26.6667)">
<stop stop-color="#0041A1"/>
<stop offset="1" stop-color="#81D9FF"/>
</radialGradient>
<radialGradient id="paint2_radial_3121_7807" cx="0" cy="0" r="1" gradientUnits="userSpaceOnUse" gradientTransform="translate(26.9997 7.66665) rotate(90) scale(7.33333 12.6667)">
<stop stop-color="#0041A1"/>
<stop offset="1" stop-color="#81D9FF"/>
</radialGradient>
</defs>
</svg>
