<svg width="64" height="64" viewBox="0 0 64 64" fill="none" xmlns="http://www.w3.org/2000/svg">
<path d="M53.9733 38H10.0266C9.67989 38 9.38657 37.7867 9.25324 37.4667C8.66657 35.8133 8.2399 34.1067 7.9999 32.2933C7.81324 30.72 9.06657 29.3067 10.6666 29.3067H53.2799C54.8799 29.3067 56.1332 30.6933 55.9466 32.2933C55.7332 34.08 55.3066 35.8133 54.6932 37.4667C54.5866 37.7867 54.2666 38 53.9199 38H53.9733ZM13.0132 42C12.3732 42 11.9732 42.7467 12.3466 43.2534C14.3199 46.0267 16.8532 48.3467 19.7866 50.08C20.6399 50.56 21.1732 51.44 21.1732 52.4V53.3334C21.1732 54.8 22.3732 56 23.8399 56H40.1599C41.6266 56 42.8266 54.8 42.8266 53.3334V52.4C42.8266 51.4134 43.3866 50.56 44.2132 50.08C47.1466 48.3734 49.6799 46.0267 51.6532 43.2534C52.0266 42.72 51.6266 42 50.9866 42H12.9866H13.0132ZM33.0399 22.7467L33.4399 22.3467C35.4399 20.3201 35.4399 17.0134 33.4399 15.0134L32.6399 14.2133C32.1599 13.7333 32.1599 12.9867 32.6399 12.5067L33.0399 12.1067C33.8132 11.3334 33.8132 10.0534 33.0399 9.28007C32.2666 8.50674 30.9866 8.50674 30.2132 9.28007L29.8132 9.68006C27.8132 11.7067 27.8132 15.0134 29.8132 17.0134L30.6132 17.8134C31.0932 18.2934 31.0932 19.0401 30.6132 19.5201L30.2132 19.92C29.4399 20.6934 29.4399 21.9734 30.2132 22.7467C30.6132 23.1467 31.1199 23.3334 31.6266 23.3334C32.1332 23.3334 32.6666 23.1467 33.0399 22.7467ZM46.3732 22.7467L46.7732 22.3467C48.7732 20.3201 48.7732 17.0134 46.7732 15.0134L45.9733 14.2133C45.4933 13.7333 45.4933 12.9867 45.9733 12.5067L46.3732 12.1067C47.1466 11.3334 47.1466 10.0534 46.3732 9.28007C45.5999 8.50674 44.3199 8.50674 43.5466 9.28007L43.1466 9.68006C41.1466 11.7067 41.1466 15.0134 43.1466 17.0134L43.9466 17.8134C44.4266 18.2934 44.4266 19.0401 43.9466 19.5201L43.5466 19.92C42.7732 20.6934 42.7732 21.9734 43.5466 22.7467C43.9466 23.1467 44.4532 23.3334 44.9599 23.3334C45.4666 23.3334 45.9999 23.1467 46.3732 22.7467ZM19.7066 22.7467L20.1066 22.3467C22.1066 20.3201 22.1066 17.0134 20.1066 15.0134L19.3066 14.2133C18.8266 13.7333 18.8266 12.9867 19.3066 12.5067L19.7066 12.1067C20.4799 11.3334 20.4799 10.0534 19.7066 9.28007C18.9332 8.50674 17.6532 8.50674 16.8799 9.28007L16.4799 9.68006C14.4799 11.7067 14.4799 15.0134 16.4799 17.0134L17.2799 17.8134C17.7599 18.2934 17.7599 19.0401 17.2799 19.5201L16.8799 19.92C16.1066 20.6934 16.1066 21.9734 16.8799 22.7467C17.2799 23.1467 17.7866 23.3334 18.2932 23.3334C18.7999 23.3334 19.3332 23.1467 19.7066 22.7467Z" fill="url(#paint0_radial_3322_7899)"/>
<defs>
<radialGradient id="paint0_radial_3322_7899" cx="0" cy="0" r="1" gradientUnits="userSpaceOnUse" gradientTransform="translate(31.9732 32.3501) rotate(90) scale(23.65 23.9918)">
<stop stop-color="#0041A1"/>
<stop offset="0.375" stop-color="#0041A1"/>
<stop offset="0.9998" stop-color="#81D9FF"/>
<stop offset="0.9999" stop-color="#0041A1"/>
<stop offset="1" stop-color="#81D9FF" stop-opacity="0"/>
</radialGradient>
</defs>
</svg>
