<svg width="38" height="48" viewBox="0 0 38 48" fill="none" xmlns="http://www.w3.org/2000/svg">
<path fill-rule="evenodd" clip-rule="evenodd" d="M18.9999 13.3333C22.6818 13.3333 25.6666 10.3486 25.6666 6.66667C25.6666 2.98477 22.6818 0 18.9999 0C15.318 0 12.3333 2.98477 12.3333 6.66667C12.3333 10.3486 15.318 13.3333 18.9999 13.3333ZM12.5216 44.92L2.60441 32.6572C1.13422 30.8393 0.333252 28.5806 0.333252 26.2525V25.7927C0.333252 20.3843 4.76541 16 10.2327 16C12.8583 16 15.3762 17.0317 17.2327 18.8682L18.9999 20.6163L20.7671 18.8682C22.6236 17.0317 25.1416 16 27.7671 16C33.2344 16 37.6666 20.3843 37.6666 25.7927V26.2525C37.6666 28.5806 36.8656 30.8393 35.3954 32.6572L25.4782 44.92C22.157 49.0267 15.8428 49.0267 12.5216 44.92Z" fill="url(#paint0_radial_3121_7958)"/>
<defs>
<radialGradient id="paint0_radial_3121_7958" cx="0" cy="0" r="1" gradientUnits="userSpaceOnUse" gradientTransform="translate(18.9999 24) rotate(90) scale(24 18.6667)">
<stop stop-color="#0041A1"/>
<stop offset="1" stop-color="#81D9FF"/>
</radialGradient>
</defs>
</svg>
