<svg width="54" height="56" viewBox="0 0 54 56" fill="none" xmlns="http://www.w3.org/2000/svg">
<path fill-rule="evenodd" clip-rule="evenodd" d="M2.33325 0.333374C1.22868 0.333374 0.333252 1.2288 0.333252 2.33337C0.333252 3.43794 1.22868 4.33337 2.33325 4.33337H7.66658C9.50753 4.33337 10.9999 5.82576 10.9999 7.66671V13V31.6667C10.9999 37.5577 15.7755 42.3334 21.6666 42.3334H42.9999C48.891 42.3334 53.6666 37.5577 53.6666 31.6667V18.3334C53.6666 12.4423 48.891 7.66671 42.9999 7.66671H14.9999C14.9999 3.61662 11.7167 0.333374 7.66658 0.333374H2.33325ZM20.3333 55.6667C22.5424 55.6667 24.3333 53.8758 24.3333 51.6667C24.3333 49.4576 22.5424 47.6667 20.3333 47.6667C18.1241 47.6667 16.3333 49.4576 16.3333 51.6667C16.3333 53.8758 18.1241 55.6667 20.3333 55.6667ZM48.3333 51.6667C48.3333 53.8758 46.5424 55.6667 44.3333 55.6667C42.1241 55.6667 40.3333 53.8758 40.3333 51.6667C40.3333 49.4576 42.1241 47.6667 44.3333 47.6667C46.5424 47.6667 48.3333 49.4576 48.3333 51.6667ZM42.0754 28.0178C42.6179 28.98 42.2777 30.1997 41.3155 30.7422C38.075 32.5692 35.284 33.661 32.3408 33.6667C29.3941 33.6724 26.5975 32.5891 23.3443 30.7384C22.3842 30.1923 22.0487 28.9712 22.5949 28.0111C23.141 27.051 24.3621 26.7155 25.3222 27.2616C28.352 28.9853 30.4189 29.6704 32.3331 29.6667C34.2509 29.663 36.3183 28.9677 39.351 27.2579C40.3132 26.7154 41.533 27.0556 42.0754 28.0178Z" fill="url(#paint0_radial_3121_11009)"/>
<defs>
<radialGradient id="paint0_radial_3121_11009" cx="0" cy="0" r="1" gradientUnits="userSpaceOnUse" gradientTransform="translate(26.9999 28) rotate(90) scale(27.6667 26.6667)">
<stop stop-color="#0041A1"/>
<stop offset="1" stop-color="#81D9FF"/>
</radialGradient>
</defs>
</svg>
