<svg width="19.000000" height="19.000000" viewBox="0 0 19 19" fill="none" xmlns="http://www.w3.org/2000/svg" xmlns:xlink="http://www.w3.org/1999/xlink">
	<desc>
			Created with Pixso.
	</desc>
	<defs/>
	<path id="grid-1" d="M2.5 0C1.12109 0 0 1.12201 0 2.5C0 3.87799 1.12109 5 2.5 5C3.87891 5 5 3.87799 5 2.5C5 1.12201 3.87891 0 2.5 0ZM2.5 4C1.67285 4 1 3.32703 1 2.5C1 1.67297 1.67285 1 2.5 1C3.32715 1 4 1.67297 4 2.5C4 3.32703 3.32715 4 2.5 4ZM9.5 0C8.12109 0 7 1.12201 7 2.5C7 3.87799 8.12109 5 9.5 5C10.8789 5 12 3.87799 12 2.5C12 1.12201 10.8789 0 9.5 0ZM9.5 4C8.67285 4 8 3.32703 8 2.5C8 1.67297 8.67285 1 9.5 1C10.3271 1 11 1.67297 11 2.5C11 3.32703 10.3271 4 9.5 4ZM16.5 5C17.8789 5 19 3.87799 19 2.5C19 1.12201 17.8789 0 16.5 0C15.1211 0 14 1.12201 14 2.5C14 3.87799 15.1211 5 16.5 5ZM16.5 1C17.3271 1 18 1.67297 18 2.5C18 3.32703 17.3271 4 16.5 4C15.6729 4 15 3.32703 15 2.5C15 1.67297 15.6729 1 16.5 1ZM2.5 7C1.12109 7 0 8.12201 0 9.5C0 10.878 1.12109 12 2.5 12C3.87891 12 5 10.878 5 9.5C5 8.12201 3.87891 7 2.5 7ZM2.5 11C1.67285 11 1 10.327 1 9.5C1 8.67297 1.67285 8 2.5 8C3.32715 8 4 8.67297 4 9.5C4 10.327 3.32715 11 2.5 11ZM9.5 7C8.12109 7 7 8.12201 7 9.5C7 10.878 8.12109 12 9.5 12C10.8789 12 12 10.878 12 9.5C12 8.12201 10.8789 7 9.5 7ZM9.5 11C8.67285 11 8 10.327 8 9.5C8 8.67297 8.67285 8 9.5 8C10.3271 8 11 8.67297 11 9.5C11 10.327 10.3271 11 9.5 11ZM16.5 7C15.1211 7 14 8.12201 14 9.5C14 10.878 15.1211 12 16.5 12C17.8789 12 19 10.878 19 9.5C19 8.12201 17.8789 7 16.5 7ZM16.5 11C15.6729 11 15 10.327 15 9.5C15 8.67297 15.6729 8 16.5 8C17.3271 8 18 8.67297 18 9.5C18 10.327 17.3271 11 16.5 11ZM2.5 14C1.12109 14 0 15.122 0 16.5C0 17.878 1.12109 19 2.5 19C3.87891 19 5 17.878 5 16.5C5 15.122 3.87891 14 2.5 14ZM2.5 18C1.67285 18 1 17.327 1 16.5C1 15.673 1.67285 15 2.5 15C3.32715 15 4 15.673 4 16.5C4 17.327 3.32715 18 2.5 18ZM9.5 14C8.12109 14 7 15.122 7 16.5C7 17.878 8.12109 19 9.5 19C10.8789 19 12 17.878 12 16.5C12 15.122 10.8789 14 9.5 14ZM9.5 18C8.67285 18 8 17.327 8 16.5C8 15.673 8.67285 15 9.5 15C10.3271 15 11 15.673 11 16.5C11 17.327 10.3271 18 9.5 18ZM16.5 14C15.1211 14 14 15.122 14 16.5C14 17.878 15.1211 19 16.5 19C17.8789 19 19 17.878 19 16.5C19 15.122 17.8789 14 16.5 14ZM16.5 18C15.6729 18 15 17.327 15 16.5C15 15.673 15.6729 15 16.5 15C17.3271 15 18 15.673 18 16.5C18 17.327 17.3271 18 16.5 18Z" fill="#000710" fill-opacity="1.000000" fill-rule="nonzero"/>
</svg>
