<svg width="408.000000" height="408.000000" viewBox="0 0 408 408" fill="none" xmlns="http://www.w3.org/2000/svg" xmlns:xlink="http://www.w3.org/1999/xlink">
	<desc>
			Created with Pixso.
	</desc>
	<defs>
		<clipPath id="clip456_982">
			<rect id="bulb" width="408.000000" height="408.000000" fill="white" fill-opacity="0"/>
		</clipPath>
	</defs>
	<rect id="bulb" width="408.000000" height="408.000000" fill="#FFFFFF" fill-opacity="0"/>
	<g clip-path="url(#clip456_982)">
		<path id="Vector" d="M225.236 311.692L183.957 311.692C180.613 311.686 177.408 310.355 175.045 307.989C172.681 305.624 171.353 302.418 171.35 299.074L169.014 267.097C156.185 260.508 145.416 250.517 137.885 238.217C130.354 225.917 126.352 211.782 126.317 197.36C126.317 154.193 161.436 119.065 204.612 119.065C247.789 119.065 282.907 154.183 282.907 197.36C282.867 211.781 278.862 225.913 271.332 238.212C263.802 250.511 253.036 260.504 240.21 267.097L237.854 299.441C237.844 306.031 232.193 311.692 225.236 311.692ZM204.602 129.265C186.548 129.286 169.241 136.467 156.475 149.233C143.709 161.999 136.528 179.306 136.507 197.36C136.538 210.353 140.271 223.068 147.27 234.016C154.268 244.963 164.242 253.689 176.021 259.172L178.745 260.437L181.529 298.707C181.54 300.41 182.621 301.492 183.957 301.492L225.236 301.492C226.562 301.492 227.644 300.41 227.644 299.074L230.438 260.437L233.172 259.182C244.95 253.695 254.922 244.966 261.92 234.017C268.918 223.069 272.653 210.354 272.687 197.36C272.666 179.308 265.485 162.002 252.722 149.237C239.958 136.471 222.653 129.289 204.602 129.265Z" fill="#FFC700" fill-opacity="1.000000" fill-rule="nonzero"/>
		<path id="Vector" d="M226.369 345.719L182.825 345.719C179.484 345.713 176.281 344.383 173.92 342.02C171.558 339.656 170.23 336.453 170.228 333.112L170.228 321.096C170.228 314.14 175.879 308.499 182.825 308.499L226.369 308.499C233.325 308.499 238.976 314.15 238.976 321.096L238.976 333.112C238.973 336.454 237.644 339.66 235.28 342.023C232.917 344.387 229.711 345.716 226.369 345.719ZM182.835 318.689C182.199 318.689 181.59 318.941 181.14 319.391C180.69 319.84 180.438 320.45 180.438 321.086L180.438 333.101C180.438 334.427 181.509 335.509 182.835 335.509L226.379 335.509C227.705 335.509 228.786 334.427 228.786 333.101L228.786 321.096C228.783 320.459 228.529 319.85 228.078 319.4C227.626 318.951 227.016 318.699 226.379 318.699L182.835 318.689ZM199.502 46.9812C199.502 44.1646 201.785 41.8812 204.602 41.8812C207.418 41.8812 209.702 44.1646 209.702 46.9812L209.702 99.8478C209.702 102.664 207.418 104.948 204.602 104.948C201.785 104.948 199.502 102.664 199.502 99.8478L199.502 46.9812ZM312.35 97.1899C314.341 95.1989 317.569 95.1991 319.561 97.1903C321.552 99.1818 321.552 102.411 319.56 104.402L282.178 141.776C280.187 143.767 276.958 143.767 274.967 141.775C272.976 139.784 272.976 136.555 274.967 134.563L312.35 97.1899ZM305.847 200.461L358.714 200.461C361.53 200.461 363.813 202.744 363.813 205.561C363.813 208.377 361.53 210.661 358.714 210.661L305.847 210.661C303.03 210.661 300.747 208.377 300.747 205.561C300.747 202.744 303.03 200.461 305.847 200.461ZM95.6963 97.1752L133.064 134.543C135.056 136.534 135.056 139.763 133.064 141.755C131.073 143.746 127.844 143.746 125.853 141.755L88.4805 104.392C86.4888 102.4 86.4873 99.171 88.4775 97.1777C90.4697 95.1827 93.7026 95.1815 95.6963 97.1752ZM49.2866 200.461L102.163 200.461C104.98 200.461 107.263 202.744 107.263 205.561C107.263 208.377 104.98 210.661 102.163 210.661L49.2866 210.661C46.4697 210.661 44.1865 208.377 44.1865 205.561C44.1865 202.744 46.4697 200.461 49.2866 200.461Z" fill="#FFC700" fill-opacity="1.000000" fill-rule="evenodd"/>
	</g>
</svg>
