<svg width="32" height="33" viewBox="0 0 32 33" fill="none" xmlns="http://www.w3.org/2000/svg">
<path d="M29.3333 16.5C29.3333 23.8638 23.3638 29.8334 16 29.8334M29.3333 16.5C29.3333 9.13622 23.3638 3.16669 16 3.16669M29.3333 16.5C29.3333 14.2909 23.3638 12.5 16 12.5C8.63619 12.5 2.66666 14.2909 2.66666 16.5M29.3333 16.5C29.3333 18.7092 23.3638 20.5 16 20.5C8.63619 20.5 2.66666 18.7092 2.66666 16.5M16 29.8334C8.63619 29.8334 2.66666 23.8638 2.66666 16.5M16 29.8334C18.9455 29.8334 21.3333 23.8638 21.3333 16.5C21.3333 9.13622 18.9455 3.16669 16 3.16669M16 29.8334C13.0545 29.8334 10.6667 23.8638 10.6667 16.5C10.6667 9.13622 13.0545 3.16669 16 3.16669M2.66666 16.5C2.66666 9.13622 8.63619 3.16669 16 3.16669" stroke="#28303F" stroke-width="1.5"/>
</svg>
