<svg width="19" height="18" viewBox="0 0 19 18" fill="none" xmlns="http://www.w3.org/2000/svg">
<path d="M12 6.99999L11.26 6.87699C11.2421 6.98443 11.2479 7.09447 11.2769 7.19946C11.3058 7.30445 11.3573 7.40187 11.4277 7.48495C11.4982 7.56803 11.5858 7.63478 11.6847 7.68055C11.7835 7.72632 11.8911 7.75002 12 7.74999V6.99999ZM1 6.99999V6.24999C0.801088 6.24999 0.610322 6.32901 0.46967 6.46966C0.329018 6.61032 0.25 6.80108 0.25 6.99999H1ZM3 17.75H14.36V16.25H3V17.75ZM15.56 6.24999H12V7.74999H15.56V6.24999ZM12.74 7.12299L13.546 2.28799L12.066 2.04099L11.26 6.87699L12.74 7.12299ZM11.82 0.249993H11.606V1.74999H11.819L11.82 0.249993ZM8.485 1.91999L5.97 5.69299L7.218 6.52499L9.733 2.75199L8.485 1.91999ZM4.93 6.24999H1V7.74999H4.93V6.24999ZM0.25 6.99999V15H1.75V6.99999H0.25ZM17.057 15.54L18.257 9.53999L16.787 9.24499L15.587 15.245L17.057 15.539V15.54ZM5.97 5.69299C5.8559 5.86428 5.70127 6.00374 5.51985 6.10091C5.33842 6.19807 5.13581 6.24894 4.93 6.24899V7.74899C5.85 7.74899 6.708 7.28999 7.218 6.52499L5.97 5.69299ZM13.546 2.28799C13.5877 2.03736 13.5743 1.77966 13.5067 1.53474C13.4392 1.28981 13.3191 1.06253 13.1549 0.868683C12.9906 0.674841 12.7861 0.519087 12.5556 0.412246C12.3251 0.305404 12.0741 0.250037 11.82 0.249993L11.819 1.74999C11.8552 1.75008 11.892 1.75805 11.9249 1.77335C11.9578 1.78865 11.9869 1.81091 12.0103 1.83859C12.0337 1.86628 12.0508 1.89872 12.0604 1.93366C12.07 1.96861 12.0719 2.00524 12.066 2.04099L13.546 2.28799ZM15.56 7.74899C16.35 7.74899 16.94 8.47099 16.786 9.24399L18.257 9.53899C18.3366 9.14009 18.3267 8.72749 18.228 8.33288C18.1293 7.93826 17.9443 7.57045 17.6864 7.25595C17.4284 6.94145 17.1039 6.68809 16.7362 6.51414C16.3685 6.34019 15.9668 6.24997 15.56 6.24999V7.74999V7.74899ZM14.36 17.75C14.9957 17.7501 15.6118 17.529 16.1035 17.1261C16.5952 16.7232 16.9322 16.1623 17.057 15.539L15.587 15.244C15.5303 15.5276 15.377 15.7828 15.1533 15.966C14.9296 16.1493 14.6492 16.2503 14.36 16.25V17.75ZM11.606 0.249993C10.9887 0.250038 10.3809 0.401488 9.83662 0.692813C9.29235 0.984138 8.82841 1.40533 8.486 1.91899L9.733 2.75199C9.93854 2.44365 10.2171 2.18985 10.5438 2.01505C10.8706 1.84025 11.2354 1.74986 11.606 1.74999V0.249993ZM3 16.25C2.31 16.25 1.75 15.69 1.75 15H0.25C0.25 15.7293 0.539731 16.4288 1.05546 16.9445C1.57118 17.4603 2.27065 17.75 3 17.75V16.25Z" fill="#0041A1"/>
<path d="M5 7V17" stroke="#0041A1" stroke-width="1.5"/>
</svg>
