<svg width="439.000000" height="329.249878" viewBox="0 0 439 329.25" fill="none" xmlns="http://www.w3.org/2000/svg" xmlns:xlink="http://www.w3.org/1999/xlink">
	<desc>
			Created with Pixso.
	</desc>
	<defs/>
	<path id="Vector" d="M436.098 149.887C433.492 146.576 429.199 144.411 423.262 143.443L413.254 141.814L430.336 36.046C431.473 28.966 430.59 23.3631 427.633 19.2373C424.676 15.1115 420.328 12.5902 414.566 11.6479C409.691 10.8585 405.191 11.3169 401.023 13.0742C396.855 14.806 392.863 17.7093 389.07 21.7586L314.531 100.276C315.16 77.9659 308.262 55.3251 293.355 36.5554C259.977 -5.46637 199.105 -12.2663 157.41 21.4021C126.129 46.5897 114.504 87.3635 124.715 123.91L118.926 125.31L93.9102 21.1729C92.2422 14.1947 89.2383 9.38132 84.9414 6.73267C80.6445 4.08405 75.6406 3.44733 69.957 4.84805C65.1562 6.01956 61.1875 8.23526 58.0039 11.4442C54.8477 14.6786 52.2695 18.9062 50.3242 24.1017L5.64844 142.119C2.89453 148.664 1.17578 154.013 0.46875 158.164C-0.238281 162.315 -0.136719 166.186 0.722656 169.752C2.1875 175.838 5.21875 179.888 9.84375 181.874C14.4688 183.886 20.0508 184.064 26.6211 182.46L86.2812 167.892L89.9453 183.199C91.5859 189.998 94.6445 194.735 99.1406 197.435C103.641 200.135 109.098 200.695 115.492 199.141C121.883 197.588 126.383 194.583 128.984 190.177C131.586 185.745 132.066 180.142 130.449 173.343L126.785 158.036L136.641 155.642C137.676 155.388 138.66 155.108 139.598 154.777C140.48 155.999 141.391 157.196 142.324 158.368C173.328 197.384 228.035 206.043 269.07 180.117L341.996 271.903C339.469 278.881 340.508 286.954 345.434 293.168L367.52 320.979C375.023 330.428 388.742 331.956 398.117 324.392C407.492 316.828 409.008 302.999 401.504 293.55L379.418 265.74C374.492 259.525 366.887 256.724 359.582 257.692L286.66 165.906C290.047 162.468 293.129 158.826 295.883 155.006C298.738 156.585 302.172 157.705 306.168 158.342L366.734 168.275L364.234 183.81C363.121 190.712 364.105 196.289 367.215 200.542C370.324 204.77 375.125 207.444 381.617 208.488C388.113 209.558 393.395 208.564 397.512 205.508C401.605 202.452 404.234 197.461 405.344 190.559L407.848 175.023L417.852 176.653C423.969 177.647 428.77 176.959 432.207 174.54C435.641 172.12 437.789 168.274 438.648 163.003C439.559 157.604 438.699 153.223 436.098 149.887ZM36.3242 145.481L63.4609 72.8214L78.4453 135.192L36.3242 145.481ZM372.141 135.065L329.363 128.035L382.352 71.7009L372.141 135.065Z" fill="#009FE3" fill-opacity="1.000000" fill-rule="nonzero"/>
	<path id="Vector" d="M225.484 19.8741C209.617 18.2951 194.379 21.6569 181.316 28.7115C180.078 29.3736 178.891 30.0612 177.703 30.7998C177.703 30.7998 177.676 30.7998 177.676 30.8253C177.449 30.9526 177.223 31.1054 176.996 31.2582C176.969 31.2582 176.969 31.2837 176.945 31.2837C176.715 31.4365 176.488 31.5638 176.262 31.7166L176.234 31.7421C176.008 31.8949 175.781 32.0477 175.555 32.1751C175.098 32.4807 174.645 32.7863 174.164 33.0919C173.938 33.2447 173.734 33.3975 173.508 33.5503C173.48 33.5503 173.48 33.5758 173.457 33.5758C173.254 33.7286 173.027 33.8814 172.824 34.0342C172.801 34.0597 172.773 34.0597 172.75 34.0851C172.547 34.2379 172.344 34.3907 172.145 34.5181C172.117 34.5435 172.094 34.569 172.066 34.569C171.863 34.7218 171.664 34.8746 171.461 35.0274C171.434 35.0529 171.41 35.0784 171.383 35.0784C171.184 35.2312 170.98 35.384 170.777 35.5368C170.754 35.5623 170.754 35.5623 170.727 35.5877C170.527 35.7405 170.324 35.9188 170.098 36.0716C169.488 36.5555 168.883 37.0394 168.301 37.5488C167.723 38.0327 167.141 38.542 166.559 39.0514L166.535 39.0768C166.406 39.2042 166.254 39.306 166.129 39.4334L166.105 39.4588C165.676 39.8409 165.27 40.2229 164.84 40.6303C164.816 40.6558 164.816 40.6558 164.789 40.6813C164.664 40.8086 164.535 40.9105 164.438 41.0378C164.41 41.0633 164.41 41.0633 164.387 41.0888C164.109 41.3434 163.828 41.6236 163.578 41.8783C163.449 42.0056 163.324 42.1329 163.199 42.2603C163.172 42.2858 163.172 42.2858 163.148 42.3112C163.02 42.4386 162.918 42.5404 162.793 42.6678C162.77 42.6932 162.77 42.6932 162.742 42.7187C162.492 42.9988 162.211 43.2535 161.961 43.5337C161.934 43.5591 161.934 43.5591 161.91 43.5846C161.809 43.7119 161.684 43.8138 161.582 43.9412C161.555 43.9666 161.531 43.9921 161.504 44.0176C161.402 44.1194 161.301 44.2468 161.203 44.3486C161.176 44.3741 161.152 44.3996 161.125 44.425C160.875 44.7052 160.621 44.9599 160.395 45.24C160.367 45.2655 160.344 45.291 160.316 45.3164C160.215 45.4183 160.113 45.5456 160.016 45.6475C159.988 45.6729 159.965 45.6984 159.938 45.7494C159.836 45.8512 159.734 45.9786 159.66 46.0804C159.637 46.1059 159.609 46.1314 159.586 46.1568C159.332 46.437 159.105 46.7171 158.852 46.9973C158.828 47.0227 158.828 47.0227 158.801 47.0482C158.699 47.1755 158.598 47.2774 158.496 47.4048C158.473 47.4302 158.449 47.4812 158.398 47.5066C158.297 47.6085 158.219 47.7358 158.117 47.8377C158.094 47.8632 158.066 47.9141 158.043 47.9396C157.816 48.2197 157.59 48.4999 157.359 48.8055C157.336 48.831 157.309 48.8564 157.285 48.9073C157.184 49.0092 157.109 49.1366 157.008 49.2384C156.98 49.2639 156.957 49.3148 156.93 49.3403C156.832 49.4422 156.754 49.5695 156.68 49.6714C156.652 49.6968 156.629 49.7478 156.602 49.7733C156.375 50.0534 156.172 50.359 155.945 50.6392C155.922 50.6646 155.895 50.7156 155.871 50.741C155.793 50.8429 155.691 50.9702 155.617 51.0721C155.594 51.123 155.566 51.1485 155.543 51.1995C155.465 51.3013 155.363 51.4287 155.289 51.5305C155.262 51.5815 155.238 51.6069 155.215 51.6579C155.113 51.8107 155.012 51.938 154.91 52.0908L154.883 52.1163C154.785 52.2436 154.684 52.3964 154.582 52.5238C154.555 52.5747 154.531 52.6002 154.504 52.6511C154.43 52.753 154.355 52.8803 154.277 52.9822C154.254 53.0331 154.203 53.0841 154.176 53.135C154.102 53.2369 154.023 53.3387 153.949 53.4661C153.926 53.517 153.898 53.5425 153.848 53.5934C153.746 53.7462 153.645 53.899 153.547 54.0518C153.445 54.2047 153.344 54.332 153.266 54.4848C153.242 54.5357 153.191 54.5867 153.168 54.6376C153.09 54.7395 153.039 54.8413 152.965 54.9432C152.938 54.9941 152.887 55.0451 152.863 55.096C152.789 55.1979 152.711 55.3252 152.66 55.4271C152.637 55.478 152.609 55.5035 152.586 55.5544C152.484 55.7072 152.406 55.86 152.309 56.0128C152.281 56.0383 152.258 56.0893 152.258 56.1147C152.18 56.2421 152.105 56.3694 152.027 56.4713C152.004 56.5222 151.98 56.5732 151.93 56.6241C151.879 56.726 151.801 56.8278 151.75 56.9297C151.727 56.9806 151.676 57.057 151.648 57.108C151.574 57.2098 151.523 57.3117 151.449 57.4391C151.422 57.49 151.398 57.5154 151.371 57.5664C151.297 57.7192 151.195 57.8465 151.121 57.9993C151.094 58.0503 151.043 58.1267 151.02 58.1776C150.969 58.2795 150.891 58.3813 150.84 58.4832C150.816 58.5342 150.766 58.6106 150.742 58.6615C150.691 58.7634 150.641 58.8652 150.59 58.9417C150.539 59.018 150.512 59.069 150.461 59.1454C150.41 59.2473 150.336 59.3491 150.285 59.451C150.262 59.5019 150.234 59.5529 150.211 59.6038C150.133 59.7566 150.031 59.9094 149.957 60.0622C149.934 60.1132 149.906 60.1641 149.883 60.215C149.832 60.3169 149.754 60.4188 149.703 60.5461C149.68 60.597 149.629 60.6735 149.602 60.7244C149.555 60.8263 149.504 60.9281 149.453 61.03C149.426 61.0809 149.375 61.1573 149.352 61.2083C149.301 61.3102 149.25 61.412 149.199 61.5139C149.172 61.5648 149.148 61.6412 149.098 61.6922C149.023 61.845 148.945 61.9978 148.871 62.1506C148.844 62.2015 148.82 62.2524 148.793 62.3289C148.746 62.4307 148.695 62.5326 148.645 62.6345C148.617 62.7109 148.566 62.7873 148.543 62.8637C148.492 62.9655 148.441 63.042 148.414 63.1438C148.391 63.2202 148.34 63.2966 148.316 63.3476C148.266 63.4494 148.215 63.5513 148.164 63.6532C148.137 63.7041 148.113 63.7805 148.086 63.8315C148.012 63.9843 147.938 64.1371 147.859 64.2899C147.836 64.3663 147.785 64.4172 147.758 64.4936C147.707 64.5955 147.656 64.6974 147.633 64.7992C147.605 64.8756 147.555 64.952 147.531 65.0284C147.48 65.1303 147.457 65.2067 147.406 65.3086C147.379 65.385 147.328 65.4614 147.305 65.5123C147.254 65.6142 147.203 65.7161 147.176 65.8179C147.152 65.8943 147.129 65.9707 147.078 66.0217C147 66.1745 146.949 66.3273 146.875 66.4801C146.848 66.5565 146.824 66.6074 146.797 66.6838C146.746 66.7857 146.699 66.8876 146.672 66.9894C146.648 67.0659 146.621 67.1168 146.598 67.1932C146.547 67.2951 146.52 67.3969 146.469 67.4988C146.445 67.5752 146.418 67.6516 146.395 67.7025C146.344 67.8044 146.32 67.9063 146.27 68.0081C146.242 68.0846 146.219 68.1355 146.191 68.2119C146.117 68.3647 146.066 68.543 145.988 68.6958C145.965 68.7467 145.938 68.7977 145.938 68.8486C145.891 68.9505 145.863 69.0778 145.812 69.1797C145.789 69.2561 145.762 69.3325 145.738 69.4089C145.711 69.5107 145.66 69.5872 145.637 69.689C145.609 69.7654 145.586 69.8418 145.559 69.9182C145.512 70.0201 145.484 70.122 145.434 70.2238C145.41 70.3003 145.383 70.3512 145.359 70.4276C145.309 70.5804 145.23 70.7587 145.18 70.9115C145.156 70.9879 145.129 71.0643 145.105 71.1407C145.082 71.2426 145.055 71.319 145.004 71.4208C144.98 71.5227 144.953 71.5991 144.902 71.701C144.879 71.7774 144.852 71.8792 144.801 71.9557C144.777 72.032 144.75 72.1085 144.727 72.2103C144.703 72.3122 144.652 72.4395 144.625 72.5414C144.602 72.5923 144.574 72.6688 144.574 72.7197C144.523 72.8725 144.473 73.0508 144.422 73.2036C144.398 73.28 144.371 73.3818 144.348 73.4583C144.32 73.5601 144.297 73.6365 144.273 73.7384C144.246 73.8148 144.223 73.9167 144.195 73.9931C144.172 74.0949 144.145 74.1714 144.121 74.2732C144.094 74.3496 144.07 74.4515 144.043 74.5279C144.02 74.6298 143.969 74.7316 143.941 74.859C143.918 74.9354 143.895 74.9863 143.895 75.0627C143.844 75.241 143.793 75.3938 143.742 75.5721C143.715 75.6485 143.691 75.7249 143.664 75.8013C143.641 75.9032 143.613 76.005 143.59 76.0814C143.562 76.1578 143.539 76.2597 143.512 76.3361C143.488 76.438 143.465 76.5399 143.438 76.6672C143.414 76.7436 143.414 76.7945 143.387 76.8709C143.363 76.9983 143.312 77.1511 143.285 77.2784C143.285 77.3293 143.262 77.3548 143.262 77.4058C143.211 77.584 143.184 77.7368 143.133 77.9151C143.109 77.9915 143.086 78.0679 143.086 78.1698C143.059 78.2717 143.035 78.3735 143.008 78.4754C142.984 78.5518 142.957 78.6282 142.957 78.7046C142.934 78.8065 142.906 78.9084 142.883 79.0102C142.855 79.0866 142.832 79.1885 142.832 79.2649C142.805 79.3922 142.781 79.4941 142.754 79.6215C142.73 79.6724 142.73 79.7488 142.703 79.7997C142.656 79.978 142.629 80.1562 142.578 80.3345C142.555 80.4109 142.555 80.4619 142.527 80.5383C142.504 80.6401 142.477 80.7675 142.453 80.8694C142.426 80.9458 142.426 81.0476 142.402 81.124C142.375 81.2259 142.352 81.3278 142.324 81.4551C142.301 81.5315 142.301 81.6079 142.277 81.6843C142.25 81.8371 142.227 81.9899 142.176 82.1427C142.176 82.1682 142.176 82.1937 142.148 82.2446C142.125 82.4229 142.074 82.6012 142.047 82.7794C142.023 82.8558 142.023 82.9068 141.996 82.9832C141.973 83.1105 141.945 83.2124 141.922 83.3397C141.898 83.4161 141.895 83.4926 141.871 83.5689C141.848 83.6963 141.82 83.7982 141.82 83.9255C141.82 84.0019 141.797 84.0783 141.797 84.1292C141.77 84.282 141.746 84.4094 141.719 84.5622C141.719 84.6131 141.695 84.6641 141.695 84.715C141.668 84.8933 141.645 85.0461 141.617 85.2244C141.617 85.3008 141.594 85.3771 141.594 85.4536C141.566 85.5554 141.566 85.6828 141.543 85.7846C141.543 85.8611 141.516 85.9374 141.516 86.0139C141.492 86.1412 141.492 86.2685 141.469 86.3704C141.469 86.4468 141.441 86.4977 141.441 86.5741C141.418 86.7269 141.391 86.8798 141.391 87.0326C141.391 87.0835 141.367 87.1344 141.367 87.1854C141.34 87.3636 141.316 87.5164 141.289 87.6947C141.289 87.7457 141.266 87.8221 141.266 87.873C141.238 88.0003 141.238 88.1531 141.215 88.2805C141.215 88.3314 141.188 88.4078 141.188 88.4587C141.164 88.6116 141.164 88.7389 141.137 88.8917C141.137 88.9426 141.137 88.9936 141.113 89.0445C141.09 89.2483 141.062 89.4265 141.062 89.6302C140.809 92.3044 140.684 94.9785 140.684 97.6017C140.684 98.0855 140.684 98.5949 140.707 99.0788C140.734 100.225 140.785 101.371 140.859 102.517C140.887 102.848 140.91 103.179 140.938 103.485C140.938 103.638 140.961 103.816 140.988 103.969C141.039 104.452 141.062 104.936 141.113 105.42C141.137 105.751 141.188 106.057 141.215 106.388C141.266 106.872 141.34 107.356 141.391 107.84C141.441 108.171 141.469 108.476 141.516 108.807C141.746 110.412 142.023 111.965 142.352 113.544C142.375 113.697 142.426 113.85 142.453 114.003C143.312 118.001 144.473 121.872 145.938 125.616C148.215 127.755 149.832 130.837 150.789 134.81C150.918 135.37 151.043 135.931 151.145 136.465C162.969 156.967 183.895 171.764 208.934 174.769C209.438 174.82 209.918 174.871 210.426 174.922C210.625 174.947 210.805 174.947 211.004 174.973C211.055 174.973 211.105 174.973 211.156 174.998C211.285 174.998 211.434 175.024 211.562 175.024C211.637 175.024 211.715 175.024 211.766 175.049C211.891 175.049 212.016 175.075 212.145 175.075C212.191 175.075 212.27 175.075 212.32 175.1C212.496 175.125 212.699 175.125 212.875 175.151L212.902 175.151C213.078 175.151 213.254 175.176 213.43 175.176C213.508 175.176 213.559 175.176 213.633 175.176C213.762 175.176 213.887 175.202 214.012 175.202C214.09 175.202 214.164 175.202 214.215 175.202C214.34 175.202 214.469 175.202 214.594 175.227C214.645 175.227 214.719 175.227 214.77 175.227C214.949 175.227 215.148 175.253 215.328 175.253L215.352 175.253C215.527 175.253 215.707 175.253 215.906 175.278C215.957 175.278 216.035 175.278 216.086 175.278C216.211 175.278 216.363 175.278 216.488 175.278C216.539 175.278 216.617 175.278 216.664 175.278C216.816 175.278 216.945 175.278 217.094 175.278C217.145 175.278 217.195 175.278 217.246 175.278C217.625 175.278 218.004 175.278 218.359 175.278C218.41 175.278 218.484 175.278 218.535 175.278C218.66 175.278 218.812 175.278 218.941 175.278C218.992 175.278 219.066 175.278 219.117 175.278C219.27 175.278 219.395 175.278 219.547 175.278C219.598 175.278 219.648 175.278 219.672 175.278C220.051 175.278 220.43 175.253 220.809 175.253C220.859 175.253 220.938 175.253 220.988 175.253C221.113 175.253 221.238 175.253 221.391 175.227C221.441 175.227 221.516 175.227 221.566 175.227C221.695 175.227 221.848 175.202 221.973 175.202C222.023 175.202 222.074 175.202 222.125 175.202C222.301 175.202 222.504 175.176 222.68 175.176L222.703 175.176C222.883 175.176 223.059 175.151 223.234 175.151C223.285 175.151 223.336 175.151 223.387 175.151C223.512 175.151 223.664 175.125 223.793 175.125C223.844 175.125 223.891 175.125 223.941 175.125C224.07 175.125 224.223 175.1 224.348 175.1C224.398 175.1 224.449 175.1 224.5 175.1C224.676 175.075 224.879 175.075 225.055 175.049C225.23 175.024 225.41 175.024 225.586 174.998C225.637 174.998 225.688 174.998 225.738 174.973C225.863 174.947 226.016 174.947 226.141 174.922C226.191 174.922 226.242 174.922 226.316 174.896C226.469 174.871 226.648 174.871 226.797 174.845C226.824 174.845 226.824 174.845 226.848 174.845C227.227 174.794 227.605 174.743 227.984 174.718C228.035 174.718 228.086 174.693 228.137 174.693C228.289 174.667 228.414 174.642 228.566 174.642C228.594 174.642 228.645 174.642 228.668 174.616C228.844 174.591 229.023 174.565 229.199 174.54C229.402 174.514 229.602 174.489 229.781 174.438C229.957 174.412 230.133 174.387 230.312 174.361C230.359 174.361 230.41 174.336 230.461 174.336C230.613 174.31 230.766 174.285 230.891 174.26C230.918 174.26 230.969 174.26 230.992 174.234C231.168 174.209 231.348 174.183 231.523 174.132L231.551 174.132C231.75 174.107 231.93 174.056 232.129 174.03C232.309 174.005 232.484 173.954 232.66 173.928C232.688 173.928 232.738 173.903 232.762 173.903C232.914 173.878 233.066 173.852 233.215 173.801C233.242 173.801 233.293 173.776 233.316 173.776C233.496 173.75 233.672 173.699 233.848 173.674C233.848 173.674 233.848 173.674 233.875 173.674C234.254 173.597 234.633 173.521 235.012 173.419C235.035 173.419 235.062 173.419 235.086 173.394C235.238 173.368 235.414 173.317 235.566 173.292C235.594 173.292 235.617 173.266 235.641 173.266C236.199 173.139 236.754 172.986 237.309 172.859C237.336 172.859 237.359 172.859 237.359 172.833C237.539 172.782 237.715 172.731 237.867 172.706L237.891 172.706C238.445 172.553 239.004 172.4 239.559 172.222C239.586 172.222 239.586 172.222 239.609 172.222C239.785 172.171 239.965 172.12 240.141 172.069C240.141 172.069 240.141 172.069 240.164 172.069C240.395 171.993 240.621 171.917 240.848 171.866C240.898 171.84 240.949 171.84 240.973 171.815C241.152 171.764 241.352 171.687 241.531 171.636C241.582 171.611 241.633 171.611 241.68 171.585C241.859 171.534 242.035 171.458 242.211 171.407C242.289 171.382 242.34 171.356 242.414 171.331C242.566 171.28 242.742 171.229 242.895 171.152C242.945 171.127 243.02 171.102 243.07 171.102C243.25 171.051 243.398 170.974 243.578 170.923C243.652 170.898 243.703 170.872 243.777 170.847C243.93 170.796 244.105 170.745 244.258 170.669C244.309 170.643 244.336 170.643 244.387 170.618C244.562 170.541 244.766 170.49 244.941 170.414C244.992 170.388 245.043 170.363 245.094 170.363C245.27 170.312 245.422 170.236 245.598 170.159C245.648 170.134 245.699 170.108 245.773 170.083C245.953 170.006 246.105 169.956 246.281 169.879C246.332 169.854 246.383 169.828 246.434 169.828C246.609 169.752 246.762 169.701 246.938 169.624C246.988 169.599 247.012 169.599 247.062 169.573C247.242 169.497 247.418 169.421 247.594 169.344C247.621 169.319 247.672 169.319 247.695 169.293C247.871 169.217 248.051 169.141 248.25 169.064C248.301 169.039 248.328 169.013 248.379 169.013C248.555 168.937 248.73 168.86 248.91 168.784C248.957 168.759 249.008 168.733 249.035 168.733C249.211 168.657 249.387 168.58 249.539 168.504C249.59 168.478 249.617 168.478 249.668 168.453C249.844 168.376 250.02 168.3 250.195 168.198C250.246 168.173 250.273 168.147 250.324 168.147C250.5 168.071 250.676 167.995 250.855 167.893C250.906 167.867 250.93 167.842 250.98 167.842C251.156 167.765 251.336 167.663 251.512 167.587C251.535 167.562 251.562 167.562 251.613 167.536C251.789 167.46 251.965 167.358 252.168 167.256C252.191 167.23 252.219 167.23 252.27 167.205C252.445 167.103 252.621 167.027 252.824 166.925C252.852 166.899 252.875 166.899 252.902 166.874C253.078 166.772 253.281 166.67 253.457 166.594C253.48 166.594 253.508 166.568 253.508 166.568C253.711 166.466 253.887 166.365 254.09 166.263C254.113 166.263 254.141 166.237 254.141 166.237C254.34 166.135 254.52 166.033 254.695 165.932C254.719 165.932 254.746 165.906 254.746 165.906C254.949 165.804 255.125 165.702 255.328 165.601L255.352 165.575C255.555 165.473 255.73 165.346 255.934 165.244C255.957 165.244 255.957 165.219 255.984 165.219C256.188 165.117 256.363 164.989 256.566 164.887C256.566 164.887 256.566 164.887 256.59 164.887C256.793 164.76 256.996 164.658 257.172 164.531C257.172 164.531 257.195 164.531 257.195 164.505C257.398 164.378 257.574 164.276 257.777 164.149C257.777 164.149 257.805 164.149 257.805 164.123C258.004 163.996 258.184 163.894 258.383 163.767C258.383 163.767 258.383 163.767 258.41 163.767C258.613 163.639 258.789 163.512 258.992 163.41C258.992 163.41 259.016 163.41 259.016 163.385C259.219 163.257 259.395 163.13 259.598 163.003C259.598 163.003 259.598 163.003 259.621 163.003C259.824 162.875 260 162.748 260.203 162.621C279.129 150.142 292.473 129.487 294.898 105.038C299.039 62.3289 267.984 24.1273 225.484 19.8741Z" fill="#81D9FF" fill-opacity="1.000000" fill-rule="nonzero"/>
	<path id="Vector" d="M233.344 155.948C190.816 151.695 159.785 113.493 164.008 70.6312C165.574 54.6375 171.863 40.2482 181.316 28.7113C177.375 30.8506 173.633 33.321 170.121 36.097C169.516 36.5809 168.91 37.0648 168.328 37.5741C167.746 38.058 167.164 38.5674 166.582 39.0767L166.559 39.1022C166.434 39.2295 166.281 39.3314 166.152 39.4587L166.129 39.4842C165.699 39.8662 165.297 40.2482 164.867 40.6557C164.84 40.6812 164.84 40.6812 164.816 40.7066C164.688 40.834 164.562 40.9359 164.461 41.0632C164.438 41.0887 164.438 41.0887 164.41 41.1141C164.133 41.3688 163.855 41.6489 163.602 41.9036C163.477 42.0309 163.348 42.1583 163.223 42.2856C163.199 42.3111 163.199 42.3111 163.172 42.3366C163.047 42.4639 162.945 42.5658 162.82 42.6931C162.793 42.7186 162.793 42.7186 162.77 42.744C162.516 43.0242 162.238 43.2789 161.984 43.559C161.961 43.5845 161.961 43.5845 161.934 43.61C161.832 43.7373 161.707 43.8392 161.605 43.9665C161.582 43.992 161.555 44.0175 161.531 44.0429C161.43 44.1448 161.328 44.2721 161.227 44.374C161.203 44.3994 161.176 44.4249 161.152 44.4504C160.898 44.7305 160.645 44.9852 160.418 45.2654C160.395 45.2908 160.367 45.3163 160.344 45.3418C160.242 45.4436 160.141 45.571 160.039 45.6729C160.016 45.6983 159.988 45.7238 159.965 45.7747C159.863 45.8766 159.762 46.0039 159.684 46.1058C159.66 46.1313 159.637 46.1567 159.609 46.1822C159.355 46.4623 159.129 46.7425 158.875 47.0226C158.852 47.0481 158.852 47.0481 158.828 47.0736C158.727 47.2009 158.625 47.3028 158.523 47.4301C158.496 47.4556 158.473 47.5065 158.422 47.532C158.32 47.6339 158.246 47.7612 158.145 47.8631C158.117 47.8885 158.094 47.9395 158.066 47.9649C157.84 48.2451 157.613 48.5252 157.387 48.8308C157.359 48.8563 157.336 48.8818 157.309 48.9327C157.211 49.0346 157.133 49.1619 157.031 49.2638C157.008 49.2893 156.98 49.3402 156.957 49.3657C156.855 49.4675 156.781 49.5949 156.703 49.6967C156.68 49.7222 156.652 49.7731 156.629 49.7986C156.402 50.0788 156.199 50.3844 155.973 50.6645C155.945 50.69 155.922 50.7409 155.895 50.7664C155.82 50.8683 155.719 50.9956 155.641 51.0975C155.617 51.1484 155.594 51.1739 155.566 51.2248C155.492 51.3267 155.391 51.454 155.312 51.5559C155.289 51.6068 155.262 51.6323 155.238 51.6832C155.137 51.836 155.035 51.9634 154.934 52.1162L154.91 52.1417C154.809 52.269 154.707 52.4218 154.605 52.5491C154.582 52.6001 154.555 52.6255 154.531 52.6765C154.453 52.7784 154.379 52.9057 154.305 53.0076C154.277 53.0585 154.227 53.1094 154.203 53.1604C154.125 53.2622 154.051 53.3641 153.977 53.4914C153.949 53.5424 153.926 53.5678 153.875 53.6188C153.773 53.7716 153.672 53.9244 153.57 54.0772C153.469 54.23 153.367 54.3573 153.293 54.5101C153.266 54.5611 153.215 54.612 153.191 54.663C153.117 54.7648 153.066 54.8667 152.988 54.9686C152.965 55.0195 152.914 55.0704 152.887 55.1214C152.812 55.2232 152.738 55.3506 152.688 55.4525C152.66 55.5034 152.637 55.5289 152.609 55.5798C152.508 55.7326 152.434 55.8854 152.332 56.0382C152.309 56.0637 152.281 56.1146 152.281 56.1401C152.207 56.2674 152.129 56.3948 152.055 56.4966C152.027 56.5476 152.004 56.5985 151.953 56.6494C151.902 56.7513 151.828 56.8532 151.777 56.955C151.75 57.006 151.699 57.0824 151.676 57.1333C151.598 57.2352 151.551 57.3371 151.473 57.4644C151.449 57.5154 151.422 57.5408 151.398 57.5917C151.32 57.7446 151.219 57.8719 151.145 58.0247C151.121 58.0756 151.07 58.152 151.043 58.203C150.992 58.3048 150.918 58.4067 150.867 58.5086C150.84 58.5595 150.789 58.6359 150.766 58.6869C150.715 58.7887 150.664 58.8906 150.613 58.967C150.562 59.0434 150.539 59.0944 150.488 59.1707C150.438 59.2726 150.363 59.3745 150.312 59.4763C150.285 59.5273 150.262 59.5782 150.234 59.6292C150.16 59.782 150.059 59.9348 149.98 60.0876C149.957 60.1385 149.934 60.1895 149.906 60.2404C149.855 60.3423 149.781 60.4442 149.73 60.5715C149.703 60.6224 149.652 60.6988 149.629 60.7497C149.578 60.8516 149.527 60.9535 149.477 61.0554C149.453 61.1063 149.402 61.1827 149.375 61.2336C149.324 61.3355 149.273 61.4374 149.223 61.5392C149.199 61.5902 149.172 61.6666 149.125 61.7175C149.047 61.8703 148.973 62.0231 148.895 62.1759C148.871 62.2269 148.844 62.2778 148.82 62.3542C148.77 62.4561 148.719 62.558 148.668 62.6598C148.645 62.7362 148.594 62.8126 148.566 62.889C148.516 62.9909 148.465 63.0673 148.441 63.1692C148.414 63.2456 148.363 63.322 148.34 63.3729C148.289 63.4748 148.238 63.5767 148.188 63.6785C148.164 63.7295 148.137 63.8059 148.113 63.8568C148.035 64.0096 147.961 64.1624 147.887 64.3152C147.859 64.3916 147.809 64.4426 147.785 64.519C147.734 64.6208 147.684 64.7227 147.656 64.8246C147.633 64.901 147.582 64.9774 147.555 65.0538C147.508 65.1557 147.48 65.2321 147.43 65.3339C147.406 65.4103 147.355 65.4868 147.328 65.5377C147.277 65.6396 147.227 65.7414 147.203 65.8433C147.176 65.9197 147.152 65.9961 147.102 66.047C147.027 66.1998 146.977 66.3527 146.898 66.5055C146.875 66.5818 146.848 66.6328 146.824 66.7092C146.773 66.8111 146.723 66.9129 146.699 67.0148C146.672 67.0912 146.648 67.1422 146.621 67.2185C146.57 67.3204 146.547 67.4223 146.496 67.5242C146.469 67.6006 146.445 67.677 146.418 67.7279C146.367 67.8298 146.344 67.9316 146.293 68.0335C146.27 68.1099 146.242 68.1609 146.219 68.2372C146.141 68.3901 146.09 68.5683 146.016 68.7212C145.988 68.7721 145.965 68.823 145.965 68.874C145.914 68.9758 145.891 69.1031 145.84 69.205C145.812 69.2814 145.789 69.3578 145.762 69.4342C145.738 69.5361 145.688 69.6125 145.66 69.7144C145.637 69.7908 145.609 69.8672 145.586 69.9436C145.535 70.0455 145.512 70.1473 145.461 70.2492C145.434 70.3256 145.41 70.3766 145.383 70.4529C145.332 70.6058 145.258 70.784 145.207 70.9368C145.18 71.0132 145.156 71.0896 145.129 71.166C145.105 71.2679 145.082 71.3443 145.031 71.4462C145.004 71.5481 144.98 71.6245 144.93 71.7263C144.902 71.8027 144.879 71.9046 144.828 71.981C144.801 72.0574 144.777 72.1338 144.75 72.2357C144.727 72.3376 144.676 72.4649 144.652 72.5668C144.625 72.6177 144.602 72.6941 144.602 72.7451C144.551 72.8979 144.5 73.0761 144.449 73.2289C144.422 73.3053 144.398 73.4072 144.371 73.4836C144.348 73.5855 144.32 73.6619 144.297 73.7638C144.273 73.8401 144.246 73.942 144.223 74.0184C144.195 74.1203 144.172 74.1967 144.145 74.2986C144.121 74.375 144.094 74.4768 144.07 74.5533C144.043 74.6551 143.992 74.757 143.969 74.8843C143.941 74.9607 143.918 75.0117 143.918 75.0881C143.867 75.2664 143.816 75.4192 143.766 75.5974C143.742 75.6738 143.715 75.7502 143.691 75.8266C143.664 75.9285 143.641 76.0304 143.613 76.1068C143.59 76.1832 143.562 76.2851 143.539 76.3615C143.512 76.4633 143.488 76.5652 143.465 76.6925C143.438 76.769 143.438 76.8199 143.414 76.8963C143.387 77.0236 143.336 77.1764 143.312 77.3038C143.312 77.3547 143.285 77.3802 143.285 77.4311C143.234 77.6094 143.211 77.7622 143.16 77.9405C143.133 78.0168 143.109 78.0933 143.109 78.1951C143.086 78.297 143.059 78.3989 143.035 78.5007C143.008 78.5771 142.984 78.6536 142.984 78.73C142.957 78.8318 142.934 78.9337 142.906 79.0356C142.883 79.112 142.855 79.2139 142.855 79.2903C142.832 79.4176 142.805 79.5195 142.781 79.6468C142.754 79.6977 142.754 79.7741 142.73 79.8251C142.68 80.0034 142.656 80.1816 142.605 80.3599C142.578 80.4363 142.578 80.4872 142.555 80.5637C142.527 80.6655 142.504 80.7928 142.477 80.8947C142.453 80.9711 142.453 81.073 142.426 81.1494C142.402 81.2513 142.375 81.3531 142.352 81.4805C142.324 81.5569 142.324 81.6333 142.301 81.7097C142.277 81.8625 142.25 82.0153 142.199 82.1681C142.199 82.1936 142.199 82.219 142.176 82.27C142.148 82.4482 142.098 82.6265 142.074 82.8048C142.047 82.8812 142.047 82.9321 142.023 83.0085C141.996 83.1359 141.973 83.2378 141.945 83.3651C141.922 83.4415 141.922 83.5179 141.898 83.5943C141.871 83.7216 141.848 83.8235 141.848 83.9508C141.848 84.0273 141.82 84.1036 141.82 84.1546C141.797 84.3074 141.77 84.4348 141.746 84.5876C141.746 84.6385 141.719 84.6894 141.719 84.7404C141.695 84.9186 141.668 85.0714 141.645 85.2497C141.645 85.3261 141.617 85.4025 141.617 85.4789C141.594 85.5808 141.594 85.7081 141.566 85.81C141.566 85.8864 141.543 85.9628 141.543 86.0392C141.516 86.1665 141.516 86.2939 141.492 86.3958C141.492 86.4721 141.469 86.5231 141.469 86.5995C141.441 86.7523 141.418 86.9051 141.391 87.0579C141.391 87.1089 141.367 87.1598 141.367 87.2107C141.34 87.389 141.316 87.5418 141.289 87.7201C141.289 87.771 141.266 87.8474 141.266 87.8983C141.238 88.0257 141.238 88.1785 141.215 88.3058C141.215 88.3568 141.188 88.4332 141.188 88.4841C141.164 88.6369 141.164 88.7643 141.137 88.9171C141.137 88.968 141.137 89.0189 141.113 89.0699C141.09 89.2736 141.062 89.4519 141.062 89.6556C140.809 92.3297 140.684 95.0038 140.684 97.627C140.684 98.1109 140.684 98.6203 140.707 99.1042C140.734 100.25 140.785 101.396 140.859 102.542C140.887 102.873 140.91 103.204 140.938 103.51C140.938 103.663 140.961 103.841 140.988 103.994C141.039 104.478 141.062 104.962 141.113 105.446C141.137 105.777 141.188 106.082 141.215 106.413C141.266 106.897 141.34 107.381 141.391 107.865C141.441 108.196 141.469 108.502 141.516 108.833C141.746 110.437 142.023 111.991 142.352 113.57C142.375 113.723 142.426 113.875 142.453 114.028C143.312 118.027 144.473 121.898 145.938 125.642C148.215 127.781 149.832 130.862 150.789 134.835C150.918 135.396 151.043 135.956 151.145 136.491C162.969 156.992 183.895 171.789 208.934 174.794C209.438 174.845 209.918 174.896 210.426 174.947C210.625 174.973 210.805 174.973 211.004 174.998C211.055 174.998 211.105 174.998 211.156 175.023C211.285 175.023 211.434 175.049 211.562 175.049C211.637 175.049 211.715 175.049 211.766 175.074C211.891 175.074 212.016 175.1 212.145 175.1C212.191 175.1 212.27 175.1 212.32 175.125C212.496 175.151 212.699 175.151 212.875 175.176L212.902 175.176C213.078 175.176 213.254 175.202 213.43 175.202C213.508 175.202 213.559 175.202 213.633 175.202C213.762 175.202 213.887 175.227 214.012 175.227C214.09 175.227 214.164 175.227 214.215 175.227C214.34 175.227 214.469 175.227 214.594 175.253C214.645 175.253 214.719 175.253 214.77 175.253C214.973 175.253 215.148 175.278 215.328 175.278L215.352 175.278C215.527 175.278 215.707 175.278 215.906 175.304C215.957 175.304 216.035 175.304 216.086 175.304C216.211 175.304 216.363 175.304 216.488 175.304C216.539 175.304 216.617 175.304 216.664 175.304C216.816 175.304 216.945 175.304 217.094 175.304C217.145 175.304 217.195 175.304 217.246 175.304C217.625 175.304 218.004 175.304 218.359 175.304C218.41 175.304 218.484 175.304 218.535 175.304C218.66 175.304 218.812 175.304 218.941 175.304C218.992 175.304 219.066 175.304 219.117 175.304C219.27 175.304 219.395 175.304 219.547 175.304C219.598 175.304 219.648 175.304 219.672 175.304C220.051 175.304 220.43 175.278 220.809 175.278C220.859 175.278 220.938 175.278 220.988 175.278C221.113 175.278 221.238 175.278 221.391 175.253C221.441 175.253 221.516 175.253 221.566 175.253C221.695 175.253 221.848 175.227 221.973 175.227C222.023 175.227 222.074 175.227 222.125 175.227C222.301 175.227 222.504 175.202 222.68 175.202L222.703 175.202C222.883 175.202 223.059 175.176 223.234 175.176C223.285 175.176 223.336 175.176 223.387 175.176C223.512 175.176 223.664 175.151 223.793 175.151C223.844 175.151 223.891 175.151 223.941 175.151C224.07 175.151 224.223 175.125 224.348 175.125C224.398 175.125 224.449 175.125 224.5 175.125C224.676 175.1 224.879 175.1 225.055 175.074C225.23 175.049 225.41 175.049 225.586 175.023C225.637 175.023 225.688 175.023 225.738 174.998C225.863 174.973 226.016 174.973 226.141 174.947C226.191 174.947 226.242 174.947 226.316 174.922C226.469 174.896 226.648 174.896 226.797 174.871C226.824 174.871 226.824 174.871 226.848 174.871C227.227 174.82 227.605 174.769 227.984 174.743C228.035 174.743 228.086 174.718 228.137 174.718C228.289 174.692 228.414 174.667 228.566 174.667C228.594 174.667 228.645 174.667 228.668 174.641C228.844 174.616 229.023 174.591 229.199 174.565C229.402 174.54 229.602 174.514 229.781 174.463C229.957 174.438 230.133 174.412 230.312 174.387C230.359 174.387 230.41 174.361 230.461 174.361C230.613 174.336 230.766 174.31 230.891 174.285C230.918 174.285 230.969 174.285 230.992 174.259C231.168 174.234 231.348 174.208 231.523 174.158L231.551 174.158C231.75 174.132 231.93 174.081 232.129 174.056C232.309 174.03 232.484 173.979 232.66 173.954C232.688 173.954 232.738 173.928 232.762 173.928C232.914 173.903 233.066 173.877 233.215 173.826C233.242 173.826 233.293 173.801 233.316 173.801C233.496 173.776 233.672 173.725 233.848 173.699C233.848 173.699 233.848 173.699 233.875 173.699C234.254 173.623 234.633 173.546 235.012 173.444C235.035 173.444 235.062 173.444 235.086 173.419C235.238 173.394 235.414 173.343 235.566 173.317C235.594 173.317 235.617 173.292 235.641 173.292C236.199 173.164 236.754 173.011 237.309 172.884C237.336 172.884 237.359 172.884 237.359 172.859C237.539 172.808 237.715 172.757 237.867 172.731L237.891 172.731C238.445 172.579 239.004 172.426 239.559 172.247C239.586 172.247 239.586 172.247 239.609 172.247C239.785 172.197 239.965 172.146 240.141 172.095C240.141 172.095 240.141 172.095 240.164 172.095C254.871 167.612 267.859 158.826 277.539 147.034C264.449 154.165 249.211 157.527 233.344 155.948Z" fill="#63C4EA" fill-opacity="1.000000" fill-rule="nonzero"/>
	<path id="Vector" d="M231.75 37.8033C228.211 43.126 238.117 47.1499 248.832 54.3318C259.543 61.5392 267.023 69.205 270.535 63.8822C274.074 58.5595 268.238 48.3979 257.523 41.1905C246.836 34.0086 235.289 32.4805 231.75 37.8033Z" fill="#FFFFFF" fill-opacity="1.000000" fill-rule="nonzero"/>
	<path id="Vector" d="M285.316 94.5453C284.027 85.5298 279.43 78.7554 275.008 79.3921C270.586 80.0287 273.164 87.1088 274.426 96.1244C275.715 105.14 275.234 112.653 279.633 112.016C284.078 111.354 286.605 103.561 285.316 94.5453Z" fill="#FFFFFF" fill-opacity="1.000000" fill-rule="nonzero"/>
	<path id="Vector" d="M347.457 251.783L282.492 170.032C281.984 169.395 281.074 169.293 280.445 169.802C279.812 170.312 279.711 171.229 280.215 171.865L345.18 253.617C345.688 254.253 346.598 254.355 347.227 253.846C347.859 253.362 347.961 252.42 347.457 251.783Z" fill="#FFFFFF" fill-opacity="1.000000" fill-rule="nonzero"/>
	<path id="Vector" d="M341.992 271.953C339.469 278.932 340.504 287.005 345.43 293.219L367.516 321.03C375.02 330.478 388.742 332.006 398.113 324.442C407.488 316.878 409.004 303.049 401.5 293.601L379.418 265.79C374.488 259.576 366.883 256.775 359.582 257.742C355.766 258.252 352.051 259.78 348.816 262.378C345.605 264.975 343.332 268.312 341.992 271.953Z" fill="#0041A1" fill-opacity="1.000000" fill-rule="nonzero"/>
	<path id="Vector" d="M164.105 29.8318C179.977 17.0216 198.926 10.8329 217.777 10.8075C242.996 10.8075 267.961 21.9114 284.941 43.3043C285.445 43.941 286.355 44.0428 286.988 43.5335C287.617 43.0241 287.719 42.1073 287.215 41.4706C269.652 19.3901 243.828 7.87866 217.777 7.87866C198.293 7.87866 178.66 14.2965 162.289 27.5398C161.656 28.0491 161.555 28.9659 162.059 29.6026C162.566 30.2393 163.477 30.3412 164.105 29.8318Z" fill="#FFFFFF" fill-opacity="1.000000" fill-rule="nonzero"/>
	<path id="Vector" d="M9.86719 181.9C14.4922 183.912 20.0781 184.09 26.6484 182.485L86.3047 167.918L89.9688 183.224C91.6133 190.024 94.668 194.761 99.168 197.46C103.664 200.16 109.121 200.72 115.516 199.167C121.91 197.613 126.406 194.608 129.008 190.202C131.613 185.771 132.094 180.168 130.477 173.368L126.812 158.062L136.664 155.668C137.703 155.413 138.688 155.133 139.621 154.802C144.07 153.274 147.227 151.033 149.074 148.078C151.07 144.895 151.676 141.075 150.918 136.593C150.816 136.058 150.715 135.497 150.562 134.937C149.602 130.964 147.984 127.883 145.711 125.743C144.93 125.005 144.043 124.368 143.109 123.833C139.418 121.796 134.645 121.49 128.781 122.916L124.715 123.91L118.926 125.31L93.9102 21.1728C92.2422 14.1946 89.2383 9.38126 84.9414 6.7326C80.6445 4.08395 75.6406 3.44727 69.957 4.84799C65.1562 6.0195 61.1875 8.2352 58.0039 11.4441C54.8477 14.6785 52.2695 18.9062 50.3242 24.1016L5.64844 142.119C2.89453 148.664 1.17578 154.012 0.46875 158.164C-0.238281 162.315 -0.136719 166.186 0.722656 169.752C2.23828 175.864 5.26953 179.913 9.86719 181.9ZM63.4609 72.8214L78.4453 135.192L36.3242 145.481L63.4609 72.8214Z" fill="#0041A1" fill-opacity="1.000000" fill-rule="nonzero"/>
	<path id="Vector" d="M291.465 125.743C289.215 129.283 287.801 132.9 287.219 136.516C286.234 142.705 287.473 147.62 290.934 151.262C292.324 152.714 293.988 153.987 295.887 155.031C298.742 156.61 302.176 157.731 306.168 158.368L366.738 168.3L364.238 183.835C363.125 190.737 364.109 196.314 367.219 200.568C370.324 204.795 375.129 207.469 381.621 208.514C388.113 209.583 393.395 208.59 397.516 205.534C401.609 202.478 404.238 197.486 405.348 190.584L407.852 175.049L417.855 176.679C423.973 177.672 428.773 176.984 432.207 174.565C435.645 172.146 437.793 168.3 438.652 163.028C439.535 157.578 438.676 153.198 436.051 149.861C433.445 146.551 429.152 144.386 423.215 143.418L413.207 141.788L430.289 36.0206C431.426 28.9406 430.539 23.3376 427.586 19.2119C424.629 15.0861 420.281 12.5648 414.52 11.6225C409.645 10.833 405.145 11.2914 400.977 13.0487C396.809 14.7805 392.816 17.6838 389.023 21.7332L314.484 100.25L302.379 112.984C297.352 117.95 293.711 122.203 291.465 125.743ZM372.145 135.065L329.367 128.035L382.355 71.7009L372.145 135.065Z" fill="#0041A1" fill-opacity="1.000000" fill-rule="nonzero"/>
</svg>
