<svg width="70" height="66" viewBox="0 0 70 66" fill="none" xmlns="http://www.w3.org/2000/svg">
<path d="M39.8254 65.5668H30.4336C29.713 65.5656 29.0223 65.2787 28.5129 64.7689C28.0036 64.2592 27.7172 63.5682 27.7166 62.8476V60.256C27.7166 58.7556 28.9354 57.539 30.4336 57.539H39.8254C41.3258 57.539 42.5446 58.7578 42.5446 60.256V62.8476C42.5441 63.5686 42.2574 64.2599 41.7476 64.7697C41.2377 65.2795 40.5464 65.5662 39.8254 65.5668ZM30.4358 59.7368C30.2987 59.7368 30.1672 59.7913 30.0703 59.8882C29.9733 59.9852 29.9188 60.1167 29.9188 60.2538V62.8454C29.9188 63.1314 30.1498 63.3646 30.4358 63.3646H39.8276C40.1136 63.3646 40.3468 63.1314 40.3468 62.8454V60.256C40.3463 60.1187 40.2913 59.9872 40.194 59.8903C40.0967 59.7934 39.965 59.739 39.8276 59.739L30.4358 59.7368ZM34.0306 1.1332C34.0306 0.525691 34.5231 0.0332031 35.1306 0.0332031C35.7382 0.0332031 36.2306 0.52569 36.2306 1.1332V12.5358C36.2306 13.1433 35.7382 13.6358 35.1306 13.6358C34.5231 13.6358 34.0306 13.1433 34.0306 12.5358V1.1332ZM58.3703 11.9625C58.7999 11.5331 59.4962 11.5331 59.9257 11.9626C60.3552 12.3922 60.3552 13.0886 59.9256 13.5181L51.8627 21.5791C51.4332 22.0085 50.7369 22.0085 50.3074 21.579C49.8779 21.1494 49.8779 20.453 50.3075 20.0235L58.3703 11.9625ZM55.8678 35.3366C55.8678 34.7291 56.3603 34.2366 56.9678 34.2366H68.3704C68.978 34.2366 69.4704 34.7291 69.4704 35.3366C69.4704 35.9441 68.9779 36.4366 68.3704 36.4366H56.9678C56.3603 36.4366 55.8678 35.9441 55.8678 35.3366ZM10.0842 11.9599C10.5139 11.5296 11.2112 11.5294 11.6412 11.9594L19.7009 20.0191C20.1304 20.4486 20.1304 21.145 19.7009 21.5745C19.2714 22.004 18.5751 22.0041 18.1455 21.5746L10.0849 13.5159C9.65522 13.0863 9.65494 12.3898 10.0842 11.9599ZM0.53125 35.3366C0.53125 34.7291 1.02374 34.2366 1.63125 34.2366H13.036C13.6436 34.2366 14.136 34.7291 14.136 35.3366C14.136 35.9441 13.6436 36.4366 13.036 36.4366H1.63125C1.02374 36.4366 0.53125 35.9441 0.53125 35.3366Z" fill="#FFC700"/>
</svg>
