<svg width="54" height="50" viewBox="0 0 54 50" fill="none" xmlns="http://www.w3.org/2000/svg">
<path fill-rule="evenodd" clip-rule="evenodd" d="M3.66659 2C3.66659 0.895431 4.56202 0 5.66659 0H8.33325C12.3833 0 15.6666 3.28325 15.6666 7.33333V8H40.3333C44.3833 8 47.6666 11.2832 47.6666 15.3333V35.4669C49.5717 36.4408 50.9952 38.2228 51.4831 40.3624C52.807 41.3329 53.6666 42.8994 53.6666 44.6667C53.6666 47.6122 51.2788 50 48.3333 50C45.3877 50 42.9999 47.6122 42.9999 44.6667C42.9999 42.3089 44.5298 40.3085 46.6511 39.604C46.2433 39.2092 45.7351 38.9175 45.1681 38.7716C44.9034 38.7034 44.6241 38.6667 44.3333 38.6667H30.8858C30.9612 38.0104 30.9999 37.3431 30.9999 36.6667C30.9999 27.0937 23.2395 19.3333 13.6666 19.3333C12.9902 19.3333 12.3228 19.3721 11.6666 19.4475V7.33333C11.6666 5.49238 10.1742 4 8.33325 4H5.66659C4.56202 4 3.66659 3.10457 3.66659 2ZM26.9999 36.6667C26.9999 44.0305 21.0304 50 13.6666 50C6.30279 50 0.333252 44.0305 0.333252 36.6667C0.333252 29.3029 6.30279 23.3333 13.6666 23.3333C21.0304 23.3333 26.9999 29.3029 26.9999 36.6667Z" fill="url(#paint0_radial_3121_10981)"/>
<defs>
<radialGradient id="paint0_radial_3121_10981" cx="0" cy="0" r="1" gradientUnits="userSpaceOnUse" gradientTransform="translate(26.9999 25) rotate(90) scale(25 26.6667)">
<stop stop-color="#0041A1"/>
<stop offset="1" stop-color="#81D9FF"/>
</radialGradient>
</defs>
</svg>
