<svg width="58" height="49" viewBox="0 0 58 49" fill="none" xmlns="http://www.w3.org/2000/svg">
<path fill-rule="evenodd" clip-rule="evenodd" d="M52.9999 8.33337C52.9999 12.0611 50.4504 15.1933 46.9999 16.0813V27C46.9999 28.1046 46.1045 29 44.9999 29C43.8954 29 42.9999 28.1046 42.9999 27V16.0813C39.5495 15.1933 36.9999 12.0611 36.9999 8.33337C36.9999 3.9151 40.5817 0.333374 44.9999 0.333374C49.4182 0.333374 52.9999 3.9151 52.9999 8.33337ZM38.9999 18.7267C35.4142 16.6528 32.9999 12.7782 32.9999 8.33337C32.9999 7.41686 33.1027 6.52434 33.2973 5.66671H17.0528C16.2191 5.66671 15.4729 6.18386 15.1802 6.96446L0.680176 45.6311C0.189863 46.9386 1.15643 48.3334 2.55284 48.3334H55.4475C56.8439 48.3334 57.8105 46.9386 57.3202 45.6311L50.8445 28.3628C50.2274 31.02 47.8449 33 44.9999 33C41.6862 33 38.9999 30.3137 38.9999 27V18.7267ZM29.7502 37.6667C29.7502 37.2525 29.4144 36.9167 29.0002 36.9167C28.586 36.9167 28.2502 37.2525 28.2502 37.6667V40.3334C28.2502 40.7476 28.586 41.0834 29.0002 41.0834C29.4144 41.0834 29.7502 40.7476 29.7502 40.3334V37.6667ZM29.0002 24.9167C29.4144 24.9167 29.7502 25.2525 29.7502 25.6667V28.3334C29.7502 28.7476 29.4144 29.0834 29.0002 29.0834C28.586 29.0834 28.2502 28.7476 28.2502 28.3334V25.6667C28.2502 25.2525 28.586 24.9167 29.0002 24.9167ZM29.7502 13.6667C29.7502 13.2525 29.4144 12.9167 29.0002 12.9167C28.586 12.9167 28.2502 13.2525 28.2502 13.6667V16.3334C28.2502 16.7476 28.586 17.0834 29.0002 17.0834C29.4144 17.0834 29.7502 16.7476 29.7502 16.3334V13.6667Z" fill="url(#paint0_radial_3121_15883)"/>
<defs>
<radialGradient id="paint0_radial_3121_15883" cx="0" cy="0" r="1" gradientUnits="userSpaceOnUse" gradientTransform="translate(29.0002 24.3334) rotate(90) scale(24 28.4491)">
<stop stop-color="#0041A1"/>
<stop offset="1" stop-color="#81D9FF"/>
</radialGradient>
</defs>
</svg>
