<svg width="58" height="45" viewBox="0 0 58 45" fill="none" xmlns="http://www.w3.org/2000/svg">
<path fill-rule="evenodd" clip-rule="evenodd" d="M50.968 20.0388V24.591C50.968 26.8001 49.1772 28.591 46.968 28.591H43.1261C40.917 28.591 39.1261 26.8001 39.1261 24.591V20.0389L43.2435 21.8688C44.3918 22.3791 45.7024 22.3791 46.8506 21.8688L50.968 20.0388ZM35.4256 18.3942V24.8906C35.4256 25.5038 34.9285 26.0008 34.3154 26.0008C33.7023 26.0008 33.2052 25.5038 33.2052 24.8906V17.4059C33.2187 17.4128 33.2325 17.4195 33.2467 17.4258L35.4256 18.3942Z" fill="url(#paint0_radial_3121_14721)"/>
<path d="M56.8473 17.1657L46.8505 12.7227C45.7023 12.2124 44.3916 12.2124 43.2434 12.7227L33.2466 17.1657C32.6606 17.4262 32.6606 18.2579 33.2466 18.5184L43.2434 22.9614C44.3916 23.4717 45.7023 23.4717 46.8505 22.9614L56.8473 18.5184C57.4334 18.2579 57.4334 17.4262 56.8473 17.1657Z" fill="url(#paint1_radial_3121_14721)"/>
<path fill-rule="evenodd" clip-rule="evenodd" d="M40.5116 41.5256H53.9284C55.5635 41.5256 56.8889 40.2001 56.8889 38.5651C56.8889 35.3573 53.9923 32.5983 49.84 31.3773C49.3444 31.2316 48.8142 31.3881 48.4509 31.7554L46.0995 34.1331C45.5202 34.7189 44.5739 34.7189 43.9946 34.1331L41.6432 31.7554C41.2799 31.3881 40.7496 31.2316 40.254 31.3773C38.7994 31.8051 37.4989 32.4215 36.423 33.18C38.9862 35.5255 40.5011 38.4083 40.5116 41.5256Z" fill="url(#paint2_radial_3121_14721)"/>
<path fill-rule="evenodd" clip-rule="evenodd" d="M28.4185 13.8855V22.9326C28.4185 25.1418 26.6276 26.9326 24.4185 26.9326H14.3533C12.1441 26.9326 10.3533 25.1418 10.3533 22.9326V13.8855L16.6345 16.6771C18.3861 17.4556 20.3856 17.4556 22.1372 16.6771L28.4185 13.8855ZM4.70791 11.3764V21.2873C4.70791 22.2226 3.94966 22.9809 3.0143 22.9809C2.07895 22.9809 1.32069 22.2226 1.32069 21.2873V9.86877C1.34127 9.87938 1.36237 9.8895 1.384 9.89911L4.70791 11.3764Z" fill="url(#paint3_radial_3121_14721)"/>
<path d="M37.3876 7.83563L22.1371 1.05763C20.3855 0.279129 18.386 0.279129 16.6344 1.05763L1.38387 7.83563C0.489854 8.23297 0.489854 9.50181 1.38387 9.89916L16.6344 16.6772C18.386 17.4557 20.3855 17.4557 22.1371 16.6772L37.3876 9.89916C38.2816 9.50181 38.2816 8.23297 37.3876 7.83563Z" fill="url(#paint4_radial_3121_14721)"/>
<path d="M14.193 30.0931L17.7802 33.7204C18.664 34.6141 20.1075 34.6141 20.9914 33.7204L24.5785 30.0931C25.1326 29.5328 25.9416 29.294 26.6976 29.5163C33.032 31.379 37.4509 35.5879 37.4509 40.4816C37.4509 42.9758 35.4289 44.9979 32.9346 44.9979H5.83687C3.34259 44.9979 1.32058 42.9758 1.32058 40.4816C1.32058 35.5879 5.73946 31.379 12.0739 29.5163C12.8299 29.294 13.6389 29.5328 14.193 30.0931Z" fill="url(#paint5_radial_3121_14721)"/>
<defs>
<radialGradient id="paint0_radial_3121_14721" cx="0" cy="0" r="1" gradientUnits="userSpaceOnUse" gradientTransform="translate(42.0866 22.9984) rotate(90) scale(5.59254 8.8814)">
<stop stop-color="#0041A1"/>
<stop offset="1" stop-color="#81D9FF"/>
</radialGradient>
<radialGradient id="paint1_radial_3121_14721" cx="0" cy="0" r="1" gradientUnits="userSpaceOnUse" gradientTransform="translate(45.047 17.8421) rotate(90) scale(5.5021 12.2399)">
<stop stop-color="#0041A1"/>
<stop offset="1" stop-color="#81D9FF"/>
</radialGradient>
<radialGradient id="paint2_radial_3121_14721" cx="0" cy="0" r="1" gradientUnits="userSpaceOnUse" gradientTransform="translate(46.656 36.4244) rotate(90) scale(5.10117 10.2329)">
<stop stop-color="#0041A1"/>
<stop offset="1" stop-color="#81D9FF"/>
</radialGradient>
<radialGradient id="paint3_radial_3121_14721" cx="0" cy="0" r="1" gradientUnits="userSpaceOnUse" gradientTransform="translate(14.8696 18.4007) rotate(90) scale(8.53193 13.5489)">
<stop stop-color="#0041A1"/>
<stop offset="1" stop-color="#81D9FF"/>
</radialGradient>
<radialGradient id="paint4_radial_3121_14721" cx="0" cy="0" r="1" gradientUnits="userSpaceOnUse" gradientTransform="translate(19.3857 8.86739) rotate(90) scale(8.39364 18.6724)">
<stop stop-color="#0041A1"/>
<stop offset="1" stop-color="#81D9FF"/>
</radialGradient>
<radialGradient id="paint5_radial_3121_14721" cx="0" cy="0" r="1" gradientUnits="userSpaceOnUse" gradientTransform="translate(19.3858 37.2158) rotate(90) scale(7.78201 18.0652)">
<stop stop-color="#0041A1"/>
<stop offset="1" stop-color="#81D9FF"/>
</radialGradient>
</defs>
</svg>
