<svg width="64" height="64" viewBox="0 0 64 64" fill="none" xmlns="http://www.w3.org/2000/svg">
<path d="M53.3333 24.6665C45.9199 24.6665 38.6132 26.4265 32.0799 29.7332C29.3599 28.1865 26.8266 26.3999 24.5066 24.3466C31.7333 17.8932 41.1466 14.7199 51.0666 15.4666C51.0666 15.4666 51.92 15.5465 53.2 15.8665C55.2266 18.5332 56.7733 21.5732 57.6799 24.8799C56.2933 24.7466 54.8799 24.6665 53.3333 24.6665V24.6665ZM57.8666 28.9065C56.48 28.7465 54.9866 28.6665 53.3333 28.6665C51.2799 28.6665 49.2266 28.8265 47.2266 29.1199C47.3066 30.1332 47.3333 31.0932 47.3333 31.9999C47.3333 41.7599 43.7599 50.9332 37.3333 58.1332C49.5199 55.6532 58.6666 44.9065 58.6666 31.9999C58.6666 30.9865 58.5866 29.9999 58.4799 29.0132C58.1066 28.9599 57.8666 28.9065 57.8666 28.9065ZM31.7866 46.3199C31.7866 46.3199 31.7866 46.3999 31.7866 46.4532C31.7866 46.5065 31.7333 46.5332 31.7066 46.5865C30.4 50.6132 28.5599 54.4532 26.1866 58.0265C27.8133 58.3999 29.4932 58.5866 31.2266 58.6399C32.1599 57.7866 32.7466 57.1999 32.7733 57.1732C39.5999 50.4532 43.3333 41.5465 43.3333 31.9999C43.3333 31.3065 43.3333 30.6132 43.2533 29.8665C40.0266 30.6399 36.9066 31.7865 33.9466 33.2799C33.8399 37.7599 33.12 42.1332 31.7866 46.3466V46.3199ZM9.03996 21.5732C12.16 31.1732 19.3866 38.9866 28.5599 43.0132C29.3866 39.8132 29.8666 36.5065 29.9466 33.1199C22.2933 28.7732 16.0266 22.4266 11.7599 14.6399C10.4533 16.1599 9.30662 17.8132 8.37329 19.5999C8.61329 20.3732 8.8266 21.0665 9.01327 21.5465L9.03996 21.5732ZM22.5333 56.3199C24.56 53.3865 26.1333 50.1866 27.3599 46.8532C17.7599 42.7732 10.0799 34.9332 6.21322 25.3066C5.65322 27.4399 5.33325 29.6799 5.33325 31.9999C5.33325 43.2532 12.3199 52.8532 22.1599 56.7732C22.3999 56.5065 22.5599 56.3199 22.5599 56.3199H22.5333ZM14.9866 12.2399C16.7999 15.6532 19.0399 18.7466 21.6265 21.5465C28.8799 14.9865 38.1332 11.3599 47.9732 11.3599C48.2666 11.3599 48.5599 11.3866 48.8533 11.3866C44.2666 7.62656 38.3732 5.35986 31.9732 5.35986C25.5732 5.35986 19.3866 7.75988 14.7199 11.7065C14.7999 11.8932 14.8799 12.0799 14.9599 12.2399H14.9866Z" fill="url(#paint0_radial_3322_16275)"/>
<defs>
<radialGradient id="paint0_radial_3322_16275" cx="0" cy="0" r="1" gradientUnits="userSpaceOnUse" gradientTransform="translate(31.9999 31.9999) rotate(90) scale(26.64 26.6667)">
<stop stop-color="#0041A1"/>
<stop offset="1" stop-color="#81D9FF"/>
</radialGradient>
</defs>
</svg>
