<svg width="54" height="54" viewBox="0 0 54 54" fill="none" xmlns="http://www.w3.org/2000/svg">
<path fill-rule="evenodd" clip-rule="evenodd" d="M37.6666 4.07297L38.8907 2.85528C42.2709 -0.507261 47.7512 -0.507261 51.1314 2.85528C54.5116 6.21782 54.5116 11.6696 51.1314 15.0321L40.1147 25.9913C38.7627 27.3363 36.5705 27.3363 35.2184 25.9913L24.2017 15.0321C20.8215 11.6696 20.8215 6.21782 24.2017 2.85528C27.5819 -0.507263 33.0623 -0.507261 36.4425 2.85528L37.6666 4.07297ZM0.333252 21.6667H5.66659L22.3659 28.9727C24.9308 30.0948 26.1103 33.0759 25.0074 35.6492C24.84 36.0397 24.6296 36.3987 24.3841 36.7228L31.6216 41.3109C33.8433 42.4217 36.2931 43 38.777 43H42.9999C45.9454 43 48.3333 45.3879 48.3333 48.3334C48.3333 51.2789 45.9454 53.6667 42.9999 53.6667H21.3694C18.0575 53.6667 14.7911 52.8956 11.8288 51.4145L0.333252 45.6667V21.6667Z" fill="url(#paint0_linear_3121_6485)"/>
<defs>
<linearGradient id="paint0_linear_3121_6485" x1="26.9999" y1="0.333374" x2="26.9999" y2="53.6667" gradientUnits="userSpaceOnUse">
<stop stop-color="#0041A1"/>
<stop offset="1" stop-color="#81D9FF"/>
</linearGradient>
</defs>
</svg>
