<svg width="40" height="54" viewBox="0 0 40 54" fill="none" xmlns="http://www.w3.org/2000/svg">
<path d="M24 4.33325C24 6.54239 22.2091 8.33325 20 8.33325C17.7909 8.33325 16 6.54239 16 4.33325C16 2.12411 17.7909 0.333252 20 0.333252C22.2091 0.333252 24 2.12411 24 4.33325Z" fill="url(#paint0_radial_3322_13849)"/>
<path d="M22.6666 50.9999C22.6666 52.4727 21.4727 53.6666 19.9999 53.6666C18.5272 53.6666 17.3333 52.4727 17.3333 50.9999C17.3333 49.5272 18.5272 48.3333 19.9999 48.3333C21.4727 48.3333 22.6666 49.5272 22.6666 50.9999Z" fill="url(#paint1_radial_3322_13849)"/>
<path d="M11.9998 50.9999C11.9998 52.4727 10.8059 53.6666 9.33317 53.6666C7.86041 53.6666 6.6665 52.4727 6.6665 50.9999C6.6665 49.5272 7.86041 48.3333 9.33317 48.3333C10.8059 48.3333 11.9998 49.5272 11.9998 50.9999Z" fill="url(#paint2_radial_3322_13849)"/>
<path d="M33.3333 50.9999C33.3333 52.4727 32.1394 53.6666 30.6667 53.6666C29.1939 53.6666 28 52.4727 28 50.9999C28 49.5272 29.1939 48.3333 30.6667 48.3333C32.1394 48.3333 33.3333 49.5272 33.3333 50.9999Z" fill="url(#paint3_radial_3322_13849)"/>
<path d="M1.33325 11C15.7959 14.566 23.7326 14.5451 38.6666 11" stroke="url(#paint4_radial_3322_13849)" stroke-width="1.5" stroke-linecap="round" stroke-linejoin="round"/>
<path d="M14.6665 26.9998V13.6665H25.3332V26.9998H14.6665Z" fill="url(#paint5_radial_3322_13849)"/>
<path d="M17.3332 21.6665L14.6665 42.9998" stroke="url(#paint6_radial_3322_13849)" stroke-width="1.5" stroke-linecap="round" stroke-linejoin="round"/>
<path d="M22.6665 21.6665L25.3332 42.9998" stroke="url(#paint7_radial_3322_13849)" stroke-width="1.5" stroke-linecap="round" stroke-linejoin="round"/>
<defs>
<radialGradient id="paint0_radial_3322_13849" cx="0" cy="0" r="1" gradientUnits="userSpaceOnUse" gradientTransform="translate(20 4.33325) rotate(90) scale(4)">
<stop stop-color="#0041A1"/>
<stop offset="1" stop-color="#81D9FF"/>
</radialGradient>
<radialGradient id="paint1_radial_3322_13849" cx="0" cy="0" r="1" gradientUnits="userSpaceOnUse" gradientTransform="translate(19.9999 50.9999) rotate(90) scale(2.66667)">
<stop stop-color="#0041A1"/>
<stop offset="1" stop-color="#81D9FF"/>
</radialGradient>
<radialGradient id="paint2_radial_3322_13849" cx="0" cy="0" r="1" gradientUnits="userSpaceOnUse" gradientTransform="translate(9.33317 50.9999) rotate(90) scale(2.66667)">
<stop stop-color="#0041A1"/>
<stop offset="1" stop-color="#81D9FF"/>
</radialGradient>
<radialGradient id="paint3_radial_3322_13849" cx="0" cy="0" r="1" gradientUnits="userSpaceOnUse" gradientTransform="translate(30.6667 50.9999) rotate(90) scale(2.66667 2.66667)">
<stop stop-color="#0041A1"/>
<stop offset="1" stop-color="#81D9FF"/>
</radialGradient>
<radialGradient id="paint4_radial_3322_13849" cx="0" cy="0" r="1" gradientUnits="userSpaceOnUse" gradientTransform="translate(19.9999 12.3333) rotate(90) scale(1.33333 18.6667)">
<stop stop-color="#0041A1"/>
<stop offset="1" stop-color="#81D9FF"/>
</radialGradient>
<radialGradient id="paint5_radial_3322_13849" cx="0" cy="0" r="1" gradientUnits="userSpaceOnUse" gradientTransform="translate(19.9998 20.3332) rotate(90) scale(6.66667 5.33333)">
<stop stop-color="#0041A1"/>
<stop offset="1" stop-color="#81D9FF"/>
</radialGradient>
<radialGradient id="paint6_radial_3322_13849" cx="0" cy="0" r="1" gradientUnits="userSpaceOnUse" gradientTransform="translate(15.9998 32.3332) rotate(90) scale(10.6667 1.33333)">
<stop stop-color="#0041A1"/>
<stop offset="1" stop-color="#81D9FF"/>
</radialGradient>
<radialGradient id="paint7_radial_3322_13849" cx="0" cy="0" r="1" gradientUnits="userSpaceOnUse" gradientTransform="translate(23.9998 32.3332) rotate(90) scale(10.6667 1.33333)">
<stop stop-color="#0041A1"/>
<stop offset="1" stop-color="#81D9FF"/>
</radialGradient>
</defs>
</svg>
