<svg width="88" height="88" viewBox="0 0 88 88" fill="none" xmlns="http://www.w3.org/2000/svg">
<path d="M7.33594 29.3333H14.6693C14.6693 29.3333 33.0026 37.4998 44.0026 42.1667C55.0026 46.8335 49.0026 54.9997 40.5026 51.4998C32.0026 48 25.0026 45.4998 25.0026 45.4998" stroke="#FFC700" stroke-width="1.5" stroke-linecap="round" stroke-linejoin="round"/>
<path d="M7.67135 61.6625C7.30086 61.4773 6.85036 61.6275 6.66512 61.9979C6.47988 62.3684 6.63004 62.8189 7.00053 63.0042L7.67135 61.6625ZM40.6713 50.6625L40.0005 50.3271L39.3297 51.6688L40.0005 52.0042L40.6713 50.6625ZM73.9039 72.4362L74.5438 72.8273L73.9039 72.4362ZM56.4159 59.4167C56.4214 59.4167 56.4269 59.4167 56.4324 59.4167C56.4379 59.4167 56.4435 59.4167 56.449 59.4167C56.4546 59.4167 56.4602 59.4167 56.4657 59.4167C56.4713 59.4167 56.4769 59.4167 56.4825 59.4167C56.4881 59.4167 56.4938 59.4167 56.4994 59.4167C56.505 59.4167 56.5107 59.4167 56.5164 59.4167C56.522 59.4167 56.5277 59.4167 56.5334 59.4167C56.5391 59.4167 56.5448 59.4167 56.5506 59.4167C56.5563 59.4167 56.562 59.4167 56.5678 59.4167C56.5736 59.4167 56.5793 59.4167 56.5851 59.4167C56.5909 59.4167 56.5967 59.4167 56.6025 59.4167C56.6083 59.4167 56.6142 59.4167 56.62 59.4167C56.6258 59.4167 56.6317 59.4167 56.6376 59.4167C56.6434 59.4167 56.6493 59.4167 56.6552 59.4167C56.6611 59.4167 56.6671 59.4167 56.673 59.4167C56.6789 59.4167 56.6849 59.4167 56.6908 59.4167C56.6968 59.4167 56.7028 59.4167 56.7087 59.4167C56.7147 59.4167 56.7207 59.4167 56.7267 59.4167C56.7328 59.4167 56.7388 59.4167 56.7448 59.4167C56.7509 59.4167 56.7569 59.4167 56.763 59.4167C56.7691 59.4167 56.7752 59.4167 56.7813 59.4167C56.7874 59.4167 56.7935 59.4167 56.7996 59.4167C56.8058 59.4167 56.8119 59.4167 56.8181 59.4167C56.8242 59.4167 56.8304 59.4167 56.8366 59.4167C56.8428 59.4167 56.849 59.4167 56.8552 59.4167C56.8614 59.4167 56.8676 59.4167 56.8739 59.4167C56.8801 59.4167 56.8864 59.4167 56.8926 59.4167C56.8989 59.4167 56.9052 59.4167 56.9115 59.4167C56.9178 59.4167 56.9241 59.4167 56.9305 59.4167C56.9368 59.4167 56.9431 59.4167 56.9495 59.4167C56.9558 59.4167 56.9622 59.4167 56.9686 59.4167C56.975 59.4167 56.9814 59.4167 56.9878 59.4167C56.9942 59.4167 57.0006 59.4167 57.0071 59.4167C57.0135 59.4167 57.02 59.4167 57.0264 59.4167C57.0329 59.4167 57.0394 59.4167 57.0459 59.4167C57.0524 59.4167 57.0589 59.4167 57.0654 59.4167C57.0719 59.4167 57.0785 59.4167 57.085 59.4167C57.0916 59.4167 57.0981 59.4167 57.1047 59.4167C57.1113 59.4167 57.1179 59.4167 57.1245 59.4167C57.1311 59.4167 57.1377 59.4167 57.1444 59.4167C57.151 59.4167 57.1576 59.4167 57.1643 59.4167C57.171 59.4167 57.1776 59.4167 57.1843 59.4167C57.191 59.4167 57.1977 59.4167 57.2044 59.4167C57.2112 59.4167 57.2179 59.4167 57.2246 59.4167C57.2314 59.4167 57.2381 59.4167 57.2449 59.4167C57.2517 59.4167 57.2585 59.4167 57.2653 59.4167C57.2721 59.4167 57.2789 59.4167 57.2857 59.4167C57.2925 59.4167 57.2994 59.4167 57.3062 59.4167C57.3131 59.4167 57.32 59.4167 57.3268 59.4167C57.3337 59.4167 57.3406 59.4167 57.3475 59.4167C57.3544 59.4167 57.3614 59.4167 57.3683 59.4167C57.3752 59.4167 57.3822 59.4167 57.3891 59.4167C57.3961 59.4167 57.4031 59.4167 57.4101 59.4167C57.4171 59.4167 57.4241 59.4167 57.4311 59.4167C57.4381 59.4167 57.4451 59.4167 57.4522 59.4167C57.4592 59.4167 57.4663 59.4167 57.4733 59.4167C57.4804 59.4167 57.4875 59.4167 57.4946 59.4167C57.5017 59.4167 57.5088 59.4167 57.5159 59.4167C57.523 59.4167 57.5302 59.4167 57.5373 59.4167C57.5445 59.4167 57.5516 59.4167 57.5588 59.4167C57.566 59.4167 57.5732 59.4167 57.5804 59.4167C57.5876 59.4167 57.5948 59.4167 57.6021 59.4167C57.6093 59.4167 57.6165 59.4167 57.6238 59.4167C57.631 59.4167 57.6383 59.4167 57.6456 59.4167C57.6529 59.4167 57.6602 59.4167 57.6675 59.4167C57.6748 59.4167 57.6821 59.4167 57.6895 59.4167C57.6968 59.4167 57.7041 59.4167 57.7115 59.4167C57.7189 59.4167 57.7262 59.4167 57.7336 59.4167C57.741 59.4167 57.7484 59.4167 57.7558 59.4167C57.7633 59.4167 57.7707 59.4167 57.7781 59.4167C57.7856 59.4167 57.793 59.4167 57.8005 59.4167C57.808 59.4167 57.8154 59.4167 57.8229 59.4167C57.8304 59.4167 57.8379 59.4167 57.8455 59.4167C57.853 59.4167 57.8605 59.4167 57.8681 59.4167C57.8756 59.4167 57.8832 59.4167 57.8907 59.4167C57.8983 59.4167 57.9059 59.4167 57.9135 59.4167C57.9211 59.4167 57.9287 59.4167 57.9363 59.4167C57.944 59.4167 57.9516 59.4167 57.9592 59.4167C57.9669 59.4167 57.9746 59.4167 57.9822 59.4167C57.9899 59.4167 57.9976 59.4167 58.0053 59.4167C58.013 59.4167 58.0207 59.4167 58.0285 59.4167C58.0362 59.4167 58.0439 59.4167 58.0517 59.4167C58.0594 59.4167 58.0672 59.4167 58.075 59.4167C58.0827 59.4167 58.0905 59.4167 58.0983 59.4167C58.1061 59.4167 58.114 59.4167 58.1218 59.4167C58.1296 59.4167 58.1375 59.4167 58.1453 59.4167C58.1532 59.4167 58.161 59.4167 58.1689 59.4167C58.1768 59.4167 58.1847 59.4167 58.1926 59.4167C58.2005 59.4167 58.2084 59.4167 58.2164 59.4167C58.2243 59.4167 58.2322 59.4167 58.2402 59.4167C58.2482 59.4167 58.2561 59.4167 58.2641 59.4167C58.2721 59.4167 58.2801 59.4167 58.2881 59.4167C58.2961 59.4167 58.3041 59.4167 58.3122 59.4167C58.3202 59.4167 58.3282 59.4167 58.3363 59.4167C58.3444 59.4167 58.3524 59.4167 58.3605 59.4167C58.3686 59.4167 58.3767 59.4167 58.3848 59.4167C58.3929 59.4167 58.401 59.4167 58.4092 59.4167C58.4173 59.4167 58.4254 59.4167 58.4336 59.4167C58.4417 59.4167 58.4499 59.4167 58.4581 59.4167C58.4663 59.4167 58.4745 59.4167 58.4827 59.4167C58.4909 59.4167 58.4991 59.4167 58.5074 59.4167C58.5156 59.4167 58.5238 59.4167 58.5321 59.4167C58.5403 59.4167 58.5486 59.4167 58.5569 59.4167C58.5652 59.4167 58.5735 59.4167 58.5818 59.4167C58.5901 59.4167 58.5984 59.4167 58.6067 59.4167C58.6151 59.4167 58.6234 59.4167 58.6318 59.4167C58.6401 59.4167 58.6485 59.4167 58.6569 59.4167C58.6652 59.4167 58.6736 59.4167 58.682 59.4167C58.6905 59.4167 58.6989 59.4167 58.7073 59.4167C58.7157 59.4167 58.7242 59.4167 58.7326 59.4167C58.7411 59.4167 58.7495 59.4167 58.758 59.4167C58.7665 59.4167 58.775 59.4167 58.7835 59.4167C58.792 59.4167 58.8005 59.4167 58.809 59.4167C58.8176 59.4167 58.8261 59.4167 58.8347 59.4167C58.8432 59.4167 58.8518 59.4167 58.8603 59.4167C58.8689 59.4167 58.8775 59.4167 58.8861 59.4167C58.8947 59.4167 58.9033 59.4167 58.9119 59.4167C58.9206 59.4167 58.9292 59.4167 58.9378 59.4167C58.9465 59.4167 58.9551 59.4167 58.9638 59.4167C58.9725 59.4167 58.9812 59.4167 58.9899 59.4167C58.9986 59.4167 59.0073 59.4167 59.016 59.4167C59.0247 59.4167 59.0334 59.4167 59.0422 59.4167C59.0509 59.4167 59.0597 59.4167 59.0684 59.4167C59.0772 59.4167 59.086 59.4167 59.0948 59.4167C59.1036 59.4167 59.1124 59.4167 59.1212 59.4167C59.13 59.4167 59.1388 59.4167 59.1477 59.4167C59.1565 59.4167 59.1654 59.4167 59.1742 59.4167C59.1831 59.4167 59.192 59.4167 59.2008 59.4167C59.2097 59.4167 59.2186 59.4167 59.2275 59.4167C59.2364 59.4167 59.2454 59.4167 59.2543 59.4167C59.2632 59.4167 59.2722 59.4167 59.2811 59.4167C59.2901 59.4167 59.299 59.4167 59.308 59.4167C59.317 59.4167 59.326 59.4167 59.335 59.4167C59.344 59.4167 59.353 59.4167 59.362 59.4167C59.3711 59.4167 59.3801 59.4167 59.3891 59.4167C59.3982 59.4167 59.4073 59.4167 59.4163 59.4167C59.4254 59.4167 59.4345 59.4167 59.4436 59.4167C59.4527 59.4167 59.4618 59.4167 59.4709 59.4167C59.48 59.4167 59.4891 59.4167 59.4983 59.4167C59.5074 59.4167 59.5166 59.4167 59.5257 59.4167C59.5349 59.4167 59.5441 59.4167 59.5533 59.4167C59.5625 59.4167 59.5717 59.4167 59.5809 59.4167C59.5901 59.4167 59.5993 59.4167 59.6085 59.4167C59.6178 59.4167 59.627 59.4167 59.6363 59.4167C59.6455 59.4167 59.6548 59.4167 59.6641 59.4167C59.6733 59.4167 59.6826 59.4167 59.6919 59.4167C59.7012 59.4167 59.7105 59.4167 59.7199 59.4167C59.7292 59.4167 59.7385 59.4167 59.7479 59.4167C59.7572 59.4167 59.7666 59.4167 59.7759 59.4167C59.7853 59.4167 59.7947 59.4167 59.8041 59.4167C59.8135 59.4167 59.8229 59.4167 59.8323 59.4167C59.8417 59.4167 59.8511 59.4167 59.8606 59.4167C59.87 59.4167 59.8795 59.4167 59.8889 59.4167C59.8984 59.4167 59.9078 59.4167 59.9173 59.4167C59.9268 59.4167 59.9363 59.4167 59.9458 59.4167C59.9553 59.4167 59.9648 59.4167 59.9743 59.4167C59.9839 59.4167 59.9934 59.4167 60.003 59.4167C60.0125 59.4167 60.0221 59.4167 60.0316 59.4167C60.0412 59.4167 60.0508 59.4167 60.0604 59.4167C60.07 59.4167 60.0796 59.4167 60.0892 59.4167C60.0988 59.4167 60.1084 59.4167 60.1181 59.4167C60.1277 59.4167 60.1374 59.4167 60.147 59.4167C60.1567 59.4167 60.1663 59.4167 60.176 59.4167C60.1857 59.4167 60.1954 59.4167 60.2051 59.4167C60.2148 59.4167 60.2245 59.4167 60.2342 59.4167C60.244 59.4167 60.2537 59.4167 60.2634 59.4167C60.2732 59.4167 60.2829 59.4167 60.2927 59.4167C60.3025 59.4167 60.3123 59.4167 60.322 59.4167C60.3318 59.4167 60.3416 59.4167 60.3514 59.4167C60.3613 59.4167 60.3711 59.4167 60.3809 59.4167C60.3907 59.4167 60.4006 59.4167 60.4104 59.4167C60.4203 59.4167 60.4302 59.4167 60.44 59.4167C60.4499 59.4167 60.4598 59.4167 60.4697 59.4167C60.4796 59.4167 60.4895 59.4167 60.4994 59.4167C60.5093 59.4167 60.5193 59.4167 60.5292 59.4167C60.5392 59.4167 60.5491 59.4167 60.5591 59.4167C60.569 59.4167 60.579 59.4167 60.589 59.4167C60.599 59.4167 60.609 59.4167 60.619 59.4167C60.629 59.4167 60.639 59.4167 60.649 59.4167C60.659 59.4167 60.6691 59.4167 60.6791 59.4167C60.6892 59.4167 60.6992 59.4167 60.7093 59.4167C60.7194 59.4167 60.7294 59.4167 60.7395 59.4167C60.7496 59.4167 60.7597 59.4167 60.7698 59.4167C60.7799 59.4167 60.7901 59.4167 60.8002 59.4167C60.8103 59.4167 60.8205 59.4167 60.8306 59.4167C60.8408 59.4167 60.8509 59.4167 60.8611 59.4167C60.8713 59.4167 60.8814 59.4167 60.8916 59.4167C60.9018 59.4167 60.912 59.4167 60.9223 59.4167C60.9325 59.4167 60.9427 59.4167 60.9529 59.4167C60.9632 59.4167 60.9734 59.4167 60.9837 59.4167C60.9939 59.4167 61.0042 59.4167 61.0145 59.4167C61.0247 59.4167 61.035 59.4167 61.0453 59.4167C61.0556 59.4167 61.0659 59.4167 61.0762 59.4167C61.0866 59.4167 61.0969 59.4167 61.1072 59.4167C61.1176 59.4167 61.1279 59.4167 61.1383 59.4167C61.1486 59.4167 61.159 59.4167 61.1694 59.4167C61.1798 59.4167 61.1901 59.4167 61.2005 59.4167C61.2109 59.4167 61.2214 59.4167 61.2318 59.4167C61.2422 59.4167 61.2526 59.4167 61.2631 59.4167C61.2735 59.4167 61.284 59.4167 61.2944 59.4167C61.3049 59.4167 61.3153 59.4167 61.3258 59.4167C61.3363 59.4167 61.3468 59.4167 61.3573 59.4167C61.3678 59.4167 61.3783 59.4167 61.3888 59.4167C61.3993 59.4167 61.4099 59.4167 61.4204 59.4167C61.431 59.4167 61.4415 59.4167 61.4521 59.4167C61.4626 59.4167 61.4732 59.4167 61.4838 59.4167C61.4944 59.4167 61.505 59.4167 61.5155 59.4167C61.5261 59.4167 61.5368 59.4167 61.5474 59.4167C61.558 59.4167 61.5686 59.4167 61.5793 59.4167C61.5899 59.4167 61.6006 59.4167 61.6112 59.4167C61.6219 59.4167 61.6326 59.4167 61.6432 59.4167C61.6539 59.4167 61.6646 59.4167 61.6753 59.4167C61.686 59.4167 61.6967 59.4167 61.7074 59.4167C61.7181 59.4167 61.7289 59.4167 61.7396 59.4167C61.7504 59.4167 61.7611 59.4167 61.7719 59.4167C61.7826 59.4167 61.7934 59.4167 61.8042 59.4167C61.8149 59.4167 61.8257 59.4167 61.8365 59.4167C61.8473 59.4167 61.8581 59.4167 61.8689 59.4167C61.8798 59.4167 61.8906 59.4167 61.9014 59.4167C61.9123 59.4167 61.9231 59.4167 61.934 59.4167C61.9448 59.4167 61.9557 59.4167 61.9666 59.4167C61.9774 59.4167 61.9883 59.4167 61.9992 59.4167C62.0101 59.4167 62.021 59.4167 62.0319 59.4167C62.0428 59.4167 62.0538 59.4167 62.0647 59.4167C62.0756 59.4167 62.0866 59.4167 62.0975 59.4167C62.1085 59.4167 62.1194 59.4167 62.1304 59.4167C62.1414 59.4167 62.1523 59.4167 62.1633 59.4167C62.1743 59.4167 62.1853 59.4167 62.1963 59.4167C62.2073 59.4167 62.2183 59.4167 62.2294 59.4167C62.2404 59.4167 62.2514 59.4167 62.2625 59.4167C62.2735 59.4167 62.2846 59.4167 62.2957 59.4167C62.3067 59.4167 62.3178 59.4167 62.3289 59.4167C62.34 59.4167 62.3511 59.4167 62.3622 59.4167C62.3733 59.4167 62.3844 59.4167 62.3955 59.4167C62.4066 59.4167 62.4177 59.4167 62.4289 59.4167C62.44 59.4167 62.4512 59.4167 62.4623 59.4167C62.4735 59.4167 62.4846 59.4167 62.4958 59.4167C62.507 59.4167 62.5182 59.4167 62.5294 59.4167C62.5406 59.4167 62.5518 59.4167 62.563 59.4167C62.5742 59.4167 62.5854 59.4167 62.5967 59.4167C62.6079 59.4167 62.6191 59.4167 62.6304 59.4167C62.6416 59.4167 62.6529 59.4167 62.6642 59.4167C62.6754 59.4167 62.6867 59.4167 62.698 59.4167C62.7093 59.4167 62.7206 59.4167 62.7319 59.4167C62.7432 59.4167 62.7545 59.4167 62.7658 59.4167C62.7771 59.4167 62.7885 59.4167 62.7998 59.4167C62.8112 59.4167 62.8225 59.4167 62.8339 59.4167C62.8452 59.4167 62.8566 59.4167 62.868 59.4167C62.8794 59.4167 62.8907 59.4167 62.9021 59.4167C62.9135 59.4167 62.9249 59.4167 62.9363 59.4167C62.9478 59.4167 62.9592 59.4167 62.9706 59.4167C62.982 59.4167 62.9935 59.4167 63.0049 59.4167C63.0164 59.4167 63.0278 59.4167 63.0393 59.4167C63.0508 59.4167 63.0623 59.4167 63.0737 59.4167C63.0852 59.4167 63.0967 59.4167 63.1082 59.4167C63.1197 59.4167 63.1312 59.4167 63.1427 59.4167C63.1543 59.4167 63.1658 59.4167 63.1773 59.4167C63.1889 59.4167 63.2004 59.4167 63.212 59.4167C63.2235 59.4167 63.2351 59.4167 63.2467 59.4167C63.2582 59.4167 63.2698 59.4167 63.2814 59.4167C63.293 59.4167 63.3046 59.4167 63.3162 59.4167C63.3278 59.4167 63.3394 59.4167 63.3511 59.4167C63.3627 59.4167 63.3743 59.4167 63.386 59.4167C63.3976 59.4167 63.4092 59.4167 63.4209 59.4167C63.4326 59.4167 63.4442 59.4167 63.4559 59.4167C63.4676 59.4167 63.4793 59.4167 63.491 59.4167C63.5027 59.4167 63.5144 59.4167 63.5261 59.4167C63.5378 59.4167 63.5495 59.4167 63.5612 59.4167C63.573 59.4167 63.5847 59.4167 63.5964 59.4167C63.6082 59.4167 63.6199 59.4167 63.6317 59.4167C63.6435 59.4167 63.6552 59.4167 63.667 59.4167C63.6788 59.4167 63.6906 59.4167 63.7024 59.4167C63.7142 59.4167 63.726 59.4167 63.7378 59.4167C63.7496 59.4167 63.7614 59.4167 63.7733 59.4167C63.7851 59.4167 63.7969 59.4167 63.8088 59.4167C63.8206 59.4167 63.8325 59.4167 63.8443 59.4167C63.8562 59.4167 63.8681 59.4167 63.8799 59.4167C63.8918 59.4167 63.9037 59.4167 63.9156 59.4167C63.9275 59.4167 63.9394 59.4167 63.9513 59.4167C63.9632 59.4167 63.9752 59.4167 63.9871 59.4167C63.999 59.4167 64.011 59.4167 64.0229 59.4167C64.0348 59.4167 64.0468 59.4167 64.0588 59.4167C64.0707 59.4167 64.0827 59.4167 64.0947 59.4167C64.1067 59.4167 64.1186 59.4167 64.1306 59.4167C64.1426 59.4167 64.1546 59.4167 64.1666 59.4167C64.1787 59.4167 64.1907 59.4167 64.2027 59.4167C64.2147 59.4167 64.2268 59.4167 64.2388 59.4167C64.2509 59.4167 64.2629 59.4167 64.275 59.4167C64.287 59.4167 64.2991 59.4167 64.3112 59.4167C64.3233 59.4167 64.3353 59.4167 64.3474 59.4167C64.3595 59.4167 64.3716 59.4167 64.3837 59.4167C64.3958 59.4167 64.408 59.4167 64.4201 59.4167C64.4322 59.4167 64.4443 59.4167 64.4565 59.4167C64.4686 59.4167 64.4808 59.4167 64.4929 59.4167C64.5051 59.4167 64.5172 59.4167 64.5294 59.4167C64.5416 59.4167 64.5538 59.4167 64.566 59.4167C64.5781 59.4167 64.5903 59.4167 64.6025 59.4167C64.6147 59.4167 64.627 59.4167 64.6392 59.4167C64.6514 59.4167 64.6636 59.4167 64.6759 59.4167C64.6881 59.4167 64.7003 59.4167 64.7126 59.4167C64.7248 59.4167 64.7371 59.4167 64.7494 59.4167C64.7616 59.4167 64.7739 59.4167 64.7862 59.4167C64.7985 59.4167 64.8108 59.4167 64.8231 59.4167C64.8354 59.4167 64.8477 59.4167 64.86 59.4167C64.8723 59.4167 64.8846 59.4167 64.8969 59.4167C64.9093 59.4167 64.9216 59.4167 64.9339 59.4167C64.9463 59.4167 64.9586 59.4167 64.971 59.4167C64.9834 59.4167 64.9957 59.4167 65.0081 59.4167C65.0205 59.4167 65.0329 59.4167 65.0452 59.4167C65.0576 59.4167 65.07 59.4167 65.0824 59.4167C65.0948 59.4167 65.1073 59.4167 65.1197 59.4167C65.1321 59.4167 65.1445 59.4167 65.157 59.4167C65.1694 59.4167 65.1818 59.4167 65.1943 59.4167C65.2067 59.4167 65.2192 59.4167 65.2317 59.4167C65.2441 59.4167 65.2566 59.4167 65.2691 59.4167C65.2816 59.4167 65.294 59.4167 65.3065 59.4167C65.319 59.4167 65.3315 59.4167 65.344 59.4167C65.3565 59.4167 65.3691 59.4167 65.3816 59.4167C65.3941 59.4167 65.4066 59.4167 65.4192 59.4167C65.4317 59.4167 65.4443 59.4167 65.4568 59.4167C65.4694 59.4167 65.4819 59.4167 65.4945 59.4167C65.5071 59.4167 65.5196 59.4167 65.5322 59.4167C65.5448 59.4167 65.5574 59.4167 65.57 59.4167C65.5826 59.4167 65.5952 59.4167 65.6078 59.4167C65.6204 59.4167 65.633 59.4167 65.6457 59.4167C65.6583 59.4167 65.6709 59.4167 65.6836 59.4167C65.6962 59.4167 65.7089 59.4167 65.7215 59.4167C65.7342 59.4167 65.7468 59.4167 65.7595 59.4167C65.7722 59.4167 65.7849 59.4167 65.7975 59.4167C65.8102 59.4167 65.8229 59.4167 65.8356 59.4167C65.8483 59.4167 65.861 59.4167 65.8737 59.4167C65.8864 59.4167 65.8992 59.4167 65.9119 59.4167C65.9246 59.4167 65.9373 59.4167 65.9501 59.4167C65.9628 59.4167 65.9756 59.4167 65.9883 59.4167C66.0011 59.4167 66.0138 59.4167 66.0266 59.4167C66.0394 59.4167 66.0522 59.4167 66.0649 59.4167C66.0777 59.4167 66.0905 59.4167 66.1033 59.4167C66.1161 59.4167 66.1289 59.4167 66.1417 59.4167C66.1545 59.4167 66.1673 59.4167 66.1802 59.4167C66.193 59.4167 66.2058 59.4167 66.2187 59.4167C66.2315 59.4167 66.2443 59.4167 66.2572 59.4167C66.27 59.4167 66.2829 59.4167 66.2958 59.4167C66.3086 59.4167 66.3215 59.4167 66.3344 59.4167C66.3473 59.4167 66.3602 59.4167 66.373 59.4167C66.3859 59.4167 66.3988 59.4167 66.4117 59.4167C66.4246 59.4167 66.4376 59.4167 66.4505 59.4167C66.4634 59.4167 66.4763 59.4167 66.4893 59.4167C66.5022 59.4167 66.5151 59.4167 66.5281 59.4167C66.541 59.4167 66.554 59.4167 66.5669 59.4167C66.5799 59.4167 66.5929 59.4167 66.6058 59.4167C66.6188 59.4167 66.6318 59.4167 66.6448 59.4167C66.6578 59.4167 66.6708 59.4167 66.6838 59.4167C66.6968 59.4167 66.7098 59.4167 66.7228 59.4167C66.7358 59.4167 66.7488 59.4167 66.7618 59.4167C66.7749 59.4167 66.7879 59.4167 66.8009 59.4167C66.814 59.4167 66.827 59.4167 66.8401 59.4167C66.8531 59.4167 66.8662 59.4167 66.8792 59.4167C66.8923 59.4167 66.9054 59.4167 66.9185 59.4167C66.9315 59.4167 66.9446 59.4167 66.9577 59.4167C66.9708 59.4167 66.9839 59.4167 66.997 59.4167C67.0101 59.4167 67.0232 59.4167 67.0363 59.4167C67.0495 59.4167 67.0626 59.4167 67.0757 59.4167C67.0888 59.4167 67.102 59.4167 67.1151 59.4167C67.1283 59.4167 67.1414 59.4167 67.1546 59.4167C67.1677 59.4167 67.1809 59.4167 67.194 59.4167C67.2072 59.4167 67.2204 59.4167 67.2336 59.4167C67.2467 59.4167 67.2599 59.4167 67.2731 59.4167C67.2863 59.4167 67.2995 59.4167 67.3127 59.4167C67.3259 59.4167 67.3391 59.4167 67.3523 59.4167C67.3656 59.4167 67.3788 59.4167 67.392 59.4167C67.4053 59.4167 67.4185 59.4167 67.4317 59.4167C67.445 59.4167 67.4582 59.4167 67.4715 59.4167C67.4847 59.4167 67.498 59.4167 67.5113 59.4167C67.5245 59.4167 67.5378 59.4167 67.5511 59.4167C67.5644 59.4167 67.5776 59.4167 67.5909 59.4167C67.6042 59.4167 67.6175 59.4167 67.6308 59.4167C67.6441 59.4167 67.6574 59.4167 67.6707 59.4167C67.6841 59.4167 67.6974 59.4167 67.7107 59.4167C67.724 59.4167 67.7374 59.4167 67.7507 59.4167C67.764 59.4167 67.7774 59.4167 67.7907 59.4167C67.8041 59.4167 67.8175 59.4167 67.8308 59.4167C67.8442 59.4167 67.8575 59.4167 67.8709 59.4167C67.8843 59.4167 67.8977 59.4167 67.9111 59.4167C67.9245 59.4167 67.9378 59.4167 67.9512 59.4167C67.9646 59.4167 67.978 59.4167 67.9915 59.4167C68.0049 59.4167 68.0183 59.4167 68.0317 59.4167C68.0451 59.4167 68.0586 59.4167 68.072 59.4167C68.0854 59.4167 68.0989 59.4167 68.1123 59.4167C68.1257 59.4167 68.1392 59.4167 68.1527 59.4167C68.1661 59.4167 68.1796 59.4167 68.193 59.4167C68.2065 59.4167 68.22 59.4167 68.2335 59.4167C68.2469 59.4167 68.2604 59.4167 68.2739 59.4167C68.2874 59.4167 68.3009 59.4167 68.3144 59.4167C68.3279 59.4167 68.3414 59.4167 68.3549 59.4167C68.3684 59.4167 68.382 59.4167 68.3955 59.4167C68.409 59.4167 68.4225 59.4167 68.4361 59.4167C68.4496 59.4167 68.4632 59.4167 68.4767 59.4167C68.4902 59.4167 68.5038 59.4167 68.5174 59.4167C68.5309 59.4167 68.5445 59.4167 68.5581 59.4167C68.5716 59.4167 68.5852 59.4167 68.5988 59.4167C68.6124 59.4167 68.6259 59.4167 68.6395 59.4167C68.6531 59.4167 68.6667 59.4167 68.6803 59.4167C68.6939 59.4167 68.7075 59.4167 68.7211 59.4167C68.7348 59.4167 68.7484 59.4167 68.762 59.4167C68.7756 59.4167 68.7892 59.4167 68.8029 59.4167C68.8165 59.4167 68.8302 59.4167 68.8438 59.4167C68.8574 59.4167 68.8711 59.4167 68.8848 59.4167C68.8984 59.4167 68.9121 59.4167 68.9257 59.4167C68.9394 59.4167 68.9531 59.4167 68.9668 59.4167C68.9804 59.4167 68.9941 59.4167 69.0078 59.4167C69.0215 59.4167 69.0352 59.4167 69.0489 59.4167C69.0626 59.4167 69.0763 59.4167 69.09 59.4167C69.1037 59.4167 69.1174 59.4167 69.1311 59.4167C69.1449 59.4167 69.1586 59.4167 69.1723 59.4167C69.186 59.4167 69.1998 59.4167 69.2135 59.4167C69.2272 59.4167 69.241 59.4167 69.2547 59.4167C69.2685 59.4167 69.2822 59.4167 69.296 59.4167C69.3098 59.4167 69.3235 59.4167 69.3373 59.4167C69.3511 59.4167 69.3648 59.4167 69.3786 59.4167C69.3924 59.4167 69.4062 59.4167 69.42 59.4167C69.4338 59.4167 69.4476 59.4167 69.4614 59.4167C69.4752 59.4167 69.489 59.4167 69.5028 59.4167C69.5166 59.4167 69.5304 59.4167 69.5442 59.4167C69.5581 59.4167 69.5719 59.4167 69.5857 59.4167C69.5995 59.4167 69.6134 59.4167 69.6272 59.4167C69.6411 59.4167 69.6549 59.4167 69.6688 59.4167C69.6826 59.4167 69.6965 59.4167 69.7103 59.4167C69.7242 59.4167 69.738 59.4167 69.7519 59.4167C69.7658 59.4167 69.7797 59.4167 69.7935 59.4167C69.8074 59.4167 69.8213 59.4167 69.8352 59.4167C69.8491 59.4167 69.863 59.4167 69.8769 59.4167C69.8908 59.4167 69.9047 59.4167 69.9186 59.4167C69.9325 59.4167 69.9464 59.4167 69.9603 59.4167C69.9742 59.4167 69.9882 59.4167 70.0021 59.4167C70.016 59.4167 70.0299 59.4167 70.0439 59.4167C70.0578 59.4167 70.0718 59.4167 70.0857 59.4167C70.0996 59.4167 70.1136 59.4167 70.1276 59.4167C70.1415 59.4167 70.1555 59.4167 70.1694 59.4167C70.1834 59.4167 70.1974 59.4167 70.2113 59.4167C70.2253 59.4167 70.2393 59.4167 70.2533 59.4167C70.2673 59.4167 70.2812 59.4167 70.2952 59.4167C70.3092 59.4167 70.3232 59.4167 70.3372 59.4167C70.3512 59.4167 70.3652 59.4167 70.3792 59.4167C70.3932 59.4167 70.4073 59.4167 70.4213 59.4167C70.4353 59.4167 70.4493 59.4167 70.4633 59.4167C70.4774 59.4167 70.4914 59.4167 70.5054 59.4167C70.5195 59.4167 70.5335 59.4167 70.5476 59.4167C70.5616 59.4167 70.5757 59.4167 70.5897 59.4167C70.6038 59.4167 70.6178 59.4167 70.6319 59.4167C70.646 59.4167 70.66 59.4167 70.6741 59.4167C70.6882 59.4167 70.7022 59.4167 70.7163 59.4167C70.7304 59.4167 70.7445 59.4167 70.7586 59.4167C70.7727 59.4167 70.7868 59.4167 70.8009 59.4167C70.8149 59.4167 70.8291 59.4167 70.8432 59.4167C70.8573 59.4167 70.8714 59.4167 70.8855 59.4167C70.8996 59.4167 70.9137 59.4167 70.9278 59.4167C70.942 59.4167 70.9561 59.4167 70.9702 59.4167C70.9844 59.4167 70.9985 59.4167 71.0126 59.4167C71.0268 59.4167 71.0409 59.4167 71.0551 59.4167C71.0692 59.4167 71.0834 59.4167 71.0975 59.4167C71.1117 59.4167 71.1258 59.4167 71.14 59.4167C71.1542 59.4167 71.1683 59.4167 71.1825 59.4167C71.1967 59.4167 71.2109 59.4167 71.225 59.4167C71.2392 59.4167 71.2534 59.4167 71.2676 59.4167C71.2818 59.4167 71.296 59.4167 71.3102 59.4167C71.3244 59.4167 71.3386 59.4167 71.3528 59.4167C71.367 59.4167 71.3812 59.4167 71.3954 59.4167C71.4096 59.4167 71.4238 59.4167 71.438 59.4167C71.4523 59.4167 71.4665 59.4167 71.4807 59.4167C71.4949 59.4167 71.5092 59.4167 71.5234 59.4167C71.5376 59.4167 71.5519 59.4167 71.5661 59.4167C71.5804 59.4167 71.5946 59.4167 71.6089 59.4167C71.6231 59.4167 71.6374 59.4167 71.6516 59.4167C71.6659 59.4167 71.6802 59.4167 71.6944 59.4167C71.7087 59.4167 71.723 59.4167 71.7372 59.4167C71.7515 59.4167 71.7658 59.4167 71.7801 59.4167C71.7943 59.4167 71.8086 59.4167 71.8229 59.4167C71.8372 59.4167 71.8515 59.4167 71.8658 59.4167C71.8801 59.4167 71.8944 59.4167 71.9087 59.4167C71.923 59.4167 71.9373 59.4167 71.9516 59.4167C71.9659 59.4167 71.9803 59.4167 71.9946 59.4167C72.0089 59.4167 72.0232 59.4167 72.0375 59.4167C72.0519 59.4167 72.0662 59.4167 72.0805 59.4167C72.0949 59.4167 72.1092 59.4167 72.1235 59.4167C72.1379 59.4167 72.1522 59.4167 72.1666 59.4167C72.1809 59.4167 72.1953 59.4167 72.2096 59.4167C72.224 59.4167 72.2383 59.4167 72.2527 59.4167C72.2671 59.4167 72.2814 59.4167 72.2958 59.4167C72.3102 59.4167 72.3245 59.4167 72.3389 59.4167C72.3533 59.4167 72.3676 59.4167 72.382 59.4167C72.3964 59.4167 72.4108 59.4167 72.4252 59.4167C72.4396 59.4167 72.454 59.4167 72.4684 59.4167C72.4828 59.4167 72.4972 59.4167 72.5116 59.4167C72.526 59.4167 72.5404 59.4167 72.5548 59.4167C72.5692 59.4167 72.5836 59.4167 72.598 59.4167C72.6124 59.4167 72.6268 59.4167 72.6413 59.4167C72.6557 59.4167 72.6701 59.4167 72.6845 59.4167C72.699 59.4167 72.7134 59.4167 72.7278 59.4167C72.7423 59.4167 72.7567 59.4167 72.7711 59.4167C72.7856 59.4167 72.8 59.4167 72.8145 59.4167C72.8289 59.4167 72.8434 59.4167 72.8578 59.4167C72.8723 59.4167 72.8867 59.4167 72.9012 59.4167C72.9157 59.4167 72.9301 59.4167 72.9446 59.4167C72.9591 59.4167 72.9735 59.4167 72.988 59.4167C73.0025 59.4167 73.017 59.4167 73.0314 59.4167C73.0459 59.4167 73.0604 59.4167 73.0749 59.4167C73.0894 59.4167 73.1039 59.4167 73.1183 59.4167C73.1328 59.4167 73.1473 59.4167 73.1618 59.4167C73.1763 59.4167 73.1908 59.4167 73.2053 59.4167C73.2198 59.4167 73.2343 59.4167 73.2488 59.4167C73.2634 59.4167 73.2779 59.4167 73.2924 59.4167C73.3069 59.4167 73.3214 59.4167 73.3359 59.4167V57.9167C73.3214 57.9167 73.3069 57.9167 73.2924 57.9167C73.2779 57.9167 73.2634 57.9167 73.2488 57.9167C73.2343 57.9167 73.2198 57.9167 73.2053 57.9167C73.1908 57.9167 73.1763 57.9167 73.1618 57.9167C73.1473 57.9167 73.1328 57.9167 73.1183 57.9167C73.1039 57.9167 73.0894 57.9167 73.0749 57.9167C73.0604 57.9167 73.0459 57.9167 73.0314 57.9167C73.017 57.9167 73.0025 57.9167 72.988 57.9167C72.9735 57.9167 72.9591 57.9167 72.9446 57.9167C72.9301 57.9167 72.9157 57.9167 72.9012 57.9167C72.8867 57.9167 72.8723 57.9167 72.8578 57.9167C72.8434 57.9167 72.8289 57.9167 72.8145 57.9167C72.8 57.9167 72.7856 57.9167 72.7711 57.9167C72.7567 57.9167 72.7423 57.9167 72.7278 57.9167C72.7134 57.9167 72.699 57.9167 72.6845 57.9167C72.6701 57.9167 72.6557 57.9167 72.6413 57.9167C72.6268 57.9167 72.6124 57.9167 72.598 57.9167C72.5836 57.9167 72.5692 57.9167 72.5548 57.9167C72.5404 57.9167 72.526 57.9167 72.5116 57.9167C72.4972 57.9167 72.4828 57.9167 72.4684 57.9167C72.454 57.9167 72.4396 57.9167 72.4252 57.9167C72.4108 57.9167 72.3964 57.9167 72.382 57.9167C72.3676 57.9167 72.3533 57.9167 72.3389 57.9167C72.3245 57.9167 72.3102 57.9167 72.2958 57.9167C72.2814 57.9167 72.2671 57.9167 72.2527 57.9167C72.2383 57.9167 72.224 57.9167 72.2096 57.9167C72.1953 57.9167 72.1809 57.9167 72.1666 57.9167C72.1522 57.9167 72.1379 57.9167 72.1235 57.9167C72.1092 57.9167 72.0949 57.9167 72.0805 57.9167C72.0662 57.9167 72.0519 57.9167 72.0375 57.9167C72.0232 57.9167 72.0089 57.9167 71.9946 57.9167C71.9803 57.9167 71.9659 57.9167 71.9516 57.9167C71.9373 57.9167 71.923 57.9167 71.9087 57.9167C71.8944 57.9167 71.8801 57.9167 71.8658 57.9167C71.8515 57.9167 71.8372 57.9167 71.8229 57.9167C71.8086 57.9167 71.7943 57.9167 71.7801 57.9167C71.7658 57.9167 71.7515 57.9167 71.7372 57.9167C71.723 57.9167 71.7087 57.9167 71.6944 57.9167C71.6802 57.9167 71.6659 57.9167 71.6516 57.9167C71.6374 57.9167 71.6231 57.9167 71.6089 57.9167C71.5946 57.9167 71.5804 57.9167 71.5661 57.9167C71.5519 57.9167 71.5376 57.9167 71.5234 57.9167C71.5092 57.9167 71.4949 57.9167 71.4807 57.9167C71.4665 57.9167 71.4523 57.9167 71.438 57.9167C71.4238 57.9167 71.4096 57.9167 71.3954 57.9167C71.3812 57.9167 71.367 57.9167 71.3528 57.9167C71.3386 57.9167 71.3244 57.9167 71.3102 57.9167C71.296 57.9167 71.2818 57.9167 71.2676 57.9167C71.2534 57.9167 71.2392 57.9167 71.225 57.9167C71.2109 57.9167 71.1967 57.9167 71.1825 57.9167C71.1683 57.9167 71.1542 57.9167 71.14 57.9167C71.1258 57.9167 71.1117 57.9167 71.0975 57.9167C71.0834 57.9167 71.0692 57.9167 71.0551 57.9167C71.0409 57.9167 71.0268 57.9167 71.0126 57.9167C70.9985 57.9167 70.9844 57.9167 70.9702 57.9167C70.9561 57.9167 70.942 57.9167 70.9278 57.9167C70.9137 57.9167 70.8996 57.9167 70.8855 57.9167C70.8714 57.9167 70.8573 57.9167 70.8432 57.9167C70.8291 57.9167 70.8149 57.9167 70.8009 57.9167C70.7868 57.9167 70.7727 57.9167 70.7586 57.9167C70.7445 57.9167 70.7304 57.9167 70.7163 57.9167C70.7022 57.9167 70.6882 57.9167 70.6741 57.9167C70.66 57.9167 70.646 57.9167 70.6319 57.9167C70.6178 57.9167 70.6038 57.9167 70.5897 57.9167C70.5757 57.9167 70.5616 57.9167 70.5476 57.9167C70.5335 57.9167 70.5195 57.9167 70.5054 57.9167C70.4914 57.9167 70.4774 57.9167 70.4633 57.9167C70.4493 57.9167 70.4353 57.9167 70.4213 57.9167C70.4073 57.9167 70.3932 57.9167 70.3792 57.9167C70.3652 57.9167 70.3512 57.9167 70.3372 57.9167C70.3232 57.9167 70.3092 57.9167 70.2952 57.9167C70.2812 57.9167 70.2673 57.9167 70.2533 57.9167C70.2393 57.9167 70.2253 57.9167 70.2113 57.9167C70.1974 57.9167 70.1834 57.9167 70.1694 57.9167C70.1555 57.9167 70.1415 57.9167 70.1276 57.9167C70.1136 57.9167 70.0996 57.9167 70.0857 57.9167C70.0718 57.9167 70.0578 57.9167 70.0439 57.9167C70.0299 57.9167 70.016 57.9167 70.0021 57.9167C69.9882 57.9167 69.9742 57.9167 69.9603 57.9167C69.9464 57.9167 69.9325 57.9167 69.9186 57.9167C69.9047 57.9167 69.8908 57.9167 69.8769 57.9167C69.863 57.9167 69.8491 57.9167 69.8352 57.9167C69.8213 57.9167 69.8074 57.9167 69.7935 57.9167C69.7797 57.9167 69.7658 57.9167 69.7519 57.9167C69.738 57.9167 69.7242 57.9167 69.7103 57.9167C69.6965 57.9167 69.6826 57.9167 69.6688 57.9167C69.6549 57.9167 69.6411 57.9167 69.6272 57.9167C69.6134 57.9167 69.5995 57.9167 69.5857 57.9167C69.5719 57.9167 69.5581 57.9167 69.5442 57.9167C69.5304 57.9167 69.5166 57.9167 69.5028 57.9167C69.489 57.9167 69.4752 57.9167 69.4614 57.9167C69.4476 57.9167 69.4338 57.9167 69.42 57.9167C69.4062 57.9167 69.3924 57.9167 69.3786 57.9167C69.3648 57.9167 69.3511 57.9167 69.3373 57.9167C69.3235 57.9167 69.3098 57.9167 69.296 57.9167C69.2822 57.9167 69.2685 57.9167 69.2547 57.9167C69.241 57.9167 69.2272 57.9167 69.2135 57.9167C69.1998 57.9167 69.186 57.9167 69.1723 57.9167C69.1586 57.9167 69.1449 57.9167 69.1311 57.9167C69.1174 57.9167 69.1037 57.9167 69.09 57.9167C69.0763 57.9167 69.0626 57.9167 69.0489 57.9167C69.0352 57.9167 69.0215 57.9167 69.0078 57.9167C68.9941 57.9167 68.9804 57.9167 68.9668 57.9167C68.9531 57.9167 68.9394 57.9167 68.9257 57.9167C68.9121 57.9167 68.8984 57.9167 68.8848 57.9167C68.8711 57.9167 68.8574 57.9167 68.8438 57.9167C68.8302 57.9167 68.8165 57.9167 68.8029 57.9167C68.7892 57.9167 68.7756 57.9167 68.762 57.9167C68.7484 57.9167 68.7348 57.9167 68.7211 57.9167C68.7075 57.9167 68.6939 57.9167 68.6803 57.9167C68.6667 57.9167 68.6531 57.9167 68.6395 57.9167C68.6259 57.9167 68.6124 57.9167 68.5988 57.9167C68.5852 57.9167 68.5716 57.9167 68.5581 57.9167C68.5445 57.9167 68.5309 57.9167 68.5174 57.9167C68.5038 57.9167 68.4902 57.9167 68.4767 57.9167C68.4632 57.9167 68.4496 57.9167 68.4361 57.9167C68.4225 57.9167 68.409 57.9167 68.3955 57.9167C68.382 57.9167 68.3684 57.9167 68.3549 57.9167C68.3414 57.9167 68.3279 57.9167 68.3144 57.9167C68.3009 57.9167 68.2874 57.9167 68.2739 57.9167C68.2604 57.9167 68.2469 57.9167 68.2335 57.9167C68.22 57.9167 68.2065 57.9167 68.193 57.9167C68.1796 57.9167 68.1661 57.9167 68.1527 57.9167C68.1392 57.9167 68.1257 57.9167 68.1123 57.9167C68.0989 57.9167 68.0854 57.9167 68.072 57.9167C68.0586 57.9167 68.0451 57.9167 68.0317 57.9167C68.0183 57.9167 68.0049 57.9167 67.9915 57.9167C67.978 57.9167 67.9646 57.9167 67.9512 57.9167C67.9378 57.9167 67.9245 57.9167 67.9111 57.9167C67.8977 57.9167 67.8843 57.9167 67.8709 57.9167C67.8575 57.9167 67.8442 57.9167 67.8308 57.9167C67.8175 57.9167 67.8041 57.9167 67.7907 57.9167C67.7774 57.9167 67.764 57.9167 67.7507 57.9167C67.7374 57.9167 67.724 57.9167 67.7107 57.9167C67.6974 57.9167 67.6841 57.9167 67.6707 57.9167C67.6574 57.9167 67.6441 57.9167 67.6308 57.9167C67.6175 57.9167 67.6042 57.9167 67.5909 57.9167C67.5776 57.9167 67.5644 57.9167 67.5511 57.9167C67.5378 57.9167 67.5245 57.9167 67.5113 57.9167C67.498 57.9167 67.4847 57.9167 67.4715 57.9167C67.4582 57.9167 67.445 57.9167 67.4317 57.9167C67.4185 57.9167 67.4053 57.9167 67.392 57.9167C67.3788 57.9167 67.3656 57.9167 67.3523 57.9167C67.3391 57.9167 67.3259 57.9167 67.3127 57.9167C67.2995 57.9167 67.2863 57.9167 67.2731 57.9167C67.2599 57.9167 67.2467 57.9167 67.2336 57.9167C67.2204 57.9167 67.2072 57.9167 67.194 57.9167C67.1809 57.9167 67.1677 57.9167 67.1546 57.9167C67.1414 57.9167 67.1283 57.9167 67.1151 57.9167C67.102 57.9167 67.0888 57.9167 67.0757 57.9167C67.0626 57.9167 67.0495 57.9167 67.0363 57.9167C67.0232 57.9167 67.0101 57.9167 66.997 57.9167C66.9839 57.9167 66.9708 57.9167 66.9577 57.9167C66.9446 57.9167 66.9315 57.9167 66.9185 57.9167C66.9054 57.9167 66.8923 57.9167 66.8792 57.9167C66.8662 57.9167 66.8531 57.9167 66.8401 57.9167C66.827 57.9167 66.814 57.9167 66.8009 57.9167C66.7879 57.9167 66.7749 57.9167 66.7618 57.9167C66.7488 57.9167 66.7358 57.9167 66.7228 57.9167C66.7098 57.9167 66.6968 57.9167 66.6838 57.9167C66.6708 57.9167 66.6578 57.9167 66.6448 57.9167C66.6318 57.9167 66.6188 57.9167 66.6058 57.9167C66.5929 57.9167 66.5799 57.9167 66.5669 57.9167C66.554 57.9167 66.541 57.9167 66.5281 57.9167C66.5151 57.9167 66.5022 57.9167 66.4893 57.9167C66.4763 57.9167 66.4634 57.9167 66.4505 57.9167C66.4376 57.9167 66.4246 57.9167 66.4117 57.9167C66.3988 57.9167 66.3859 57.9167 66.373 57.9167C66.3602 57.9167 66.3473 57.9167 66.3344 57.9167C66.3215 57.9167 66.3086 57.9167 66.2958 57.9167C66.2829 57.9167 66.27 57.9167 66.2572 57.9167C66.2443 57.9167 66.2315 57.9167 66.2187 57.9167C66.2058 57.9167 66.193 57.9167 66.1802 57.9167C66.1673 57.9167 66.1545 57.9167 66.1417 57.9167C66.1289 57.9167 66.1161 57.9167 66.1033 57.9167C66.0905 57.9167 66.0777 57.9167 66.0649 57.9167C66.0522 57.9167 66.0394 57.9167 66.0266 57.9167C66.0138 57.9167 66.0011 57.9167 65.9883 57.9167C65.9756 57.9167 65.9628 57.9167 65.9501 57.9167C65.9373 57.9167 65.9246 57.9167 65.9119 57.9167C65.8992 57.9167 65.8864 57.9167 65.8737 57.9167C65.861 57.9167 65.8483 57.9167 65.8356 57.9167C65.8229 57.9167 65.8102 57.9167 65.7975 57.9167C65.7849 57.9167 65.7722 57.9167 65.7595 57.9167C65.7468 57.9167 65.7342 57.9167 65.7215 57.9167C65.7089 57.9167 65.6962 57.9167 65.6836 57.9167C65.6709 57.9167 65.6583 57.9167 65.6457 57.9167C65.633 57.9167 65.6204 57.9167 65.6078 57.9167C65.5952 57.9167 65.5826 57.9167 65.57 57.9167C65.5574 57.9167 65.5448 57.9167 65.5322 57.9167C65.5196 57.9167 65.5071 57.9167 65.4945 57.9167C65.4819 57.9167 65.4694 57.9167 65.4568 57.9167C65.4443 57.9167 65.4317 57.9167 65.4192 57.9167C65.4066 57.9167 65.3941 57.9167 65.3816 57.9167C65.3691 57.9167 65.3565 57.9167 65.344 57.9167C65.3315 57.9167 65.319 57.9167 65.3065 57.9167C65.294 57.9167 65.2816 57.9167 65.2691 57.9167C65.2566 57.9167 65.2441 57.9167 65.2317 57.9167C65.2192 57.9167 65.2067 57.9167 65.1943 57.9167C65.1818 57.9167 65.1694 57.9167 65.157 57.9167C65.1445 57.9167 65.1321 57.9167 65.1197 57.9167C65.1073 57.9167 65.0948 57.9167 65.0824 57.9167C65.07 57.9167 65.0576 57.9167 65.0452 57.9167C65.0329 57.9167 65.0205 57.9167 65.0081 57.9167C64.9957 57.9167 64.9834 57.9167 64.971 57.9167C64.9586 57.9167 64.9463 57.9167 64.9339 57.9167C64.9216 57.9167 64.9093 57.9167 64.8969 57.9167C64.8846 57.9167 64.8723 57.9167 64.86 57.9167C64.8477 57.9167 64.8354 57.9167 64.8231 57.9167C64.8108 57.9167 64.7985 57.9167 64.7862 57.9167C64.7739 57.9167 64.7616 57.9167 64.7494 57.9167C64.7371 57.9167 64.7248 57.9167 64.7126 57.9167C64.7003 57.9167 64.6881 57.9167 64.6759 57.9167C64.6636 57.9167 64.6514 57.9167 64.6392 57.9167C64.627 57.9167 64.6147 57.9167 64.6025 57.9167C64.5903 57.9167 64.5781 57.9167 64.566 57.9167C64.5538 57.9167 64.5416 57.9167 64.5294 57.9167C64.5172 57.9167 64.5051 57.9167 64.4929 57.9167C64.4808 57.9167 64.4686 57.9167 64.4565 57.9167C64.4443 57.9167 64.4322 57.9167 64.4201 57.9167C64.408 57.9167 64.3958 57.9167 64.3837 57.9167C64.3716 57.9167 64.3595 57.9167 64.3474 57.9167C64.3353 57.9167 64.3233 57.9167 64.3112 57.9167C64.2991 57.9167 64.287 57.9167 64.275 57.9167C64.2629 57.9167 64.2509 57.9167 64.2388 57.9167C64.2268 57.9167 64.2147 57.9167 64.2027 57.9167C64.1907 57.9167 64.1787 57.9167 64.1666 57.9167C64.1546 57.9167 64.1426 57.9167 64.1306 57.9167C64.1186 57.9167 64.1067 57.9167 64.0947 57.9167C64.0827 57.9167 64.0707 57.9167 64.0588 57.9167C64.0468 57.9167 64.0348 57.9167 64.0229 57.9167C64.011 57.9167 63.999 57.9167 63.9871 57.9167C63.9752 57.9167 63.9632 57.9167 63.9513 57.9167C63.9394 57.9167 63.9275 57.9167 63.9156 57.9167C63.9037 57.9167 63.8918 57.9167 63.8799 57.9167C63.8681 57.9167 63.8562 57.9167 63.8443 57.9167C63.8325 57.9167 63.8206 57.9167 63.8088 57.9167C63.7969 57.9167 63.7851 57.9167 63.7733 57.9167C63.7614 57.9167 63.7496 57.9167 63.7378 57.9167C63.726 57.9167 63.7142 57.9167 63.7024 57.9167C63.6906 57.9167 63.6788 57.9167 63.667 57.9167C63.6552 57.9167 63.6435 57.9167 63.6317 57.9167C63.6199 57.9167 63.6082 57.9167 63.5964 57.9167C63.5847 57.9167 63.573 57.9167 63.5612 57.9167C63.5495 57.9167 63.5378 57.9167 63.5261 57.9167C63.5144 57.9167 63.5027 57.9167 63.491 57.9167C63.4793 57.9167 63.4676 57.9167 63.4559 57.9167C63.4442 57.9167 63.4326 57.9167 63.4209 57.9167C63.4092 57.9167 63.3976 57.9167 63.386 57.9167C63.3743 57.9167 63.3627 57.9167 63.3511 57.9167C63.3394 57.9167 63.3278 57.9167 63.3162 57.9167C63.3046 57.9167 63.293 57.9167 63.2814 57.9167C63.2698 57.9167 63.2582 57.9167 63.2467 57.9167C63.2351 57.9167 63.2235 57.9167 63.212 57.9167C63.2004 57.9167 63.1889 57.9167 63.1773 57.9167C63.1658 57.9167 63.1543 57.9167 63.1427 57.9167C63.1312 57.9167 63.1197 57.9167 63.1082 57.9167C63.0967 57.9167 63.0852 57.9167 63.0737 57.9167C63.0623 57.9167 63.0508 57.9167 63.0393 57.9167C63.0278 57.9167 63.0164 57.9167 63.0049 57.9167C62.9935 57.9167 62.982 57.9167 62.9706 57.9167C62.9592 57.9167 62.9478 57.9167 62.9363 57.9167C62.9249 57.9167 62.9135 57.9167 62.9021 57.9167C62.8907 57.9167 62.8794 57.9167 62.868 57.9167C62.8566 57.9167 62.8452 57.9167 62.8339 57.9167C62.8225 57.9167 62.8112 57.9167 62.7998 57.9167C62.7885 57.9167 62.7771 57.9167 62.7658 57.9167C62.7545 57.9167 62.7432 57.9167 62.7319 57.9167C62.7206 57.9167 62.7093 57.9167 62.698 57.9167C62.6867 57.9167 62.6754 57.9167 62.6642 57.9167C62.6529 57.9167 62.6416 57.9167 62.6304 57.9167C62.6191 57.9167 62.6079 57.9167 62.5967 57.9167C62.5854 57.9167 62.5742 57.9167 62.563 57.9167C62.5518 57.9167 62.5406 57.9167 62.5294 57.9167C62.5182 57.9167 62.507 57.9167 62.4958 57.9167C62.4846 57.9167 62.4735 57.9167 62.4623 57.9167C62.4512 57.9167 62.44 57.9167 62.4289 57.9167C62.4177 57.9167 62.4066 57.9167 62.3955 57.9167C62.3844 57.9167 62.3733 57.9167 62.3622 57.9167C62.3511 57.9167 62.34 57.9167 62.3289 57.9167C62.3178 57.9167 62.3067 57.9167 62.2957 57.9167C62.2846 57.9167 62.2735 57.9167 62.2625 57.9167C62.2514 57.9167 62.2404 57.9167 62.2294 57.9167C62.2183 57.9167 62.2073 57.9167 62.1963 57.9167C62.1853 57.9167 62.1743 57.9167 62.1633 57.9167C62.1523 57.9167 62.1414 57.9167 62.1304 57.9167C62.1194 57.9167 62.1085 57.9167 62.0975 57.9167C62.0866 57.9167 62.0756 57.9167 62.0647 57.9167C62.0538 57.9167 62.0428 57.9167 62.0319 57.9167C62.021 57.9167 62.0101 57.9167 61.9992 57.9167C61.9883 57.9167 61.9774 57.9167 61.9666 57.9167C61.9557 57.9167 61.9448 57.9167 61.934 57.9167C61.9231 57.9167 61.9123 57.9167 61.9014 57.9167C61.8906 57.9167 61.8798 57.9167 61.8689 57.9167C61.8581 57.9167 61.8473 57.9167 61.8365 57.9167C61.8257 57.9167 61.8149 57.9167 61.8042 57.9167C61.7934 57.9167 61.7826 57.9167 61.7719 57.9167C61.7611 57.9167 61.7504 57.9167 61.7396 57.9167C61.7289 57.9167 61.7181 57.9167 61.7074 57.9167C61.6967 57.9167 61.686 57.9167 61.6753 57.9167C61.6646 57.9167 61.6539 57.9167 61.6432 57.9167C61.6326 57.9167 61.6219 57.9167 61.6112 57.9167C61.6006 57.9167 61.5899 57.9167 61.5793 57.9167C61.5686 57.9167 61.558 57.9167 61.5474 57.9167C61.5368 57.9167 61.5261 57.9167 61.5155 57.9167C61.505 57.9167 61.4944 57.9167 61.4838 57.9167C61.4732 57.9167 61.4626 57.9167 61.4521 57.9167C61.4415 57.9167 61.431 57.9167 61.4204 57.9167C61.4099 57.9167 61.3993 57.9167 61.3888 57.9167C61.3783 57.9167 61.3678 57.9167 61.3573 57.9167C61.3468 57.9167 61.3363 57.9167 61.3258 57.9167C61.3153 57.9167 61.3049 57.9167 61.2944 57.9167C61.284 57.9167 61.2735 57.9167 61.2631 57.9167C61.2526 57.9167 61.2422 57.9167 61.2318 57.9167C61.2214 57.9167 61.2109 57.9167 61.2005 57.9167C61.1901 57.9167 61.1798 57.9167 61.1694 57.9167C61.159 57.9167 61.1486 57.9167 61.1383 57.9167C61.1279 57.9167 61.1176 57.9167 61.1072 57.9167C61.0969 57.9167 61.0866 57.9167 61.0762 57.9167C61.0659 57.9167 61.0556 57.9167 61.0453 57.9167C61.035 57.9167 61.0247 57.9167 61.0145 57.9167C61.0042 57.9167 60.9939 57.9167 60.9837 57.9167C60.9734 57.9167 60.9632 57.9167 60.9529 57.9167C60.9427 57.9167 60.9325 57.9167 60.9223 57.9167C60.912 57.9167 60.9018 57.9167 60.8916 57.9167C60.8814 57.9167 60.8713 57.9167 60.8611 57.9167C60.8509 57.9167 60.8408 57.9167 60.8306 57.9167C60.8205 57.9167 60.8103 57.9167 60.8002 57.9167C60.7901 57.9167 60.7799 57.9167 60.7698 57.9167C60.7597 57.9167 60.7496 57.9167 60.7395 57.9167C60.7294 57.9167 60.7194 57.9167 60.7093 57.9167C60.6992 57.9167 60.6892 57.9167 60.6791 57.9167C60.6691 57.9167 60.659 57.9167 60.649 57.9167C60.639 57.9167 60.629 57.9167 60.619 57.9167C60.609 57.9167 60.599 57.9167 60.589 57.9167C60.579 57.9167 60.569 57.9167 60.5591 57.9167C60.5491 57.9167 60.5392 57.9167 60.5292 57.9167C60.5193 57.9167 60.5093 57.9167 60.4994 57.9167C60.4895 57.9167 60.4796 57.9167 60.4697 57.9167C60.4598 57.9167 60.4499 57.9167 60.44 57.9167C60.4302 57.9167 60.4203 57.9167 60.4104 57.9167C60.4006 57.9167 60.3907 57.9167 60.3809 57.9167C60.3711 57.9167 60.3613 57.9167 60.3514 57.9167C60.3416 57.9167 60.3318 57.9167 60.322 57.9167C60.3123 57.9167 60.3025 57.9167 60.2927 57.9167C60.2829 57.9167 60.2732 57.9167 60.2634 57.9167C60.2537 57.9167 60.244 57.9167 60.2342 57.9167C60.2245 57.9167 60.2148 57.9167 60.2051 57.9167C60.1954 57.9167 60.1857 57.9167 60.176 57.9167C60.1663 57.9167 60.1567 57.9167 60.147 57.9167C60.1374 57.9167 60.1277 57.9167 60.1181 57.9167C60.1084 57.9167 60.0988 57.9167 60.0892 57.9167C60.0796 57.9167 60.07 57.9167 60.0604 57.9167C60.0508 57.9167 60.0412 57.9167 60.0316 57.9167C60.0221 57.9167 60.0125 57.9167 60.003 57.9167C59.9934 57.9167 59.9839 57.9167 59.9743 57.9167C59.9648 57.9167 59.9553 57.9167 59.9458 57.9167C59.9363 57.9167 59.9268 57.9167 59.9173 57.9167C59.9078 57.9167 59.8984 57.9167 59.8889 57.9167C59.8795 57.9167 59.87 57.9167 59.8606 57.9167C59.8511 57.9167 59.8417 57.9167 59.8323 57.9167C59.8229 57.9167 59.8135 57.9167 59.8041 57.9167C59.7947 57.9167 59.7853 57.9167 59.7759 57.9167C59.7666 57.9167 59.7572 57.9167 59.7479 57.9167C59.7385 57.9167 59.7292 57.9167 59.7199 57.9167C59.7105 57.9167 59.7012 57.9167 59.6919 57.9167C59.6826 57.9167 59.6733 57.9167 59.6641 57.9167C59.6548 57.9167 59.6455 57.9167 59.6363 57.9167C59.627 57.9167 59.6178 57.9167 59.6085 57.9167C59.5993 57.9167 59.5901 57.9167 59.5809 57.9167C59.5717 57.9167 59.5625 57.9167 59.5533 57.9167C59.5441 57.9167 59.5349 57.9167 59.5257 57.9167C59.5166 57.9167 59.5074 57.9167 59.4983 57.9167C59.4891 57.9167 59.48 57.9167 59.4709 57.9167C59.4618 57.9167 59.4527 57.9167 59.4436 57.9167C59.4345 57.9167 59.4254 57.9167 59.4163 57.9167C59.4073 57.9167 59.3982 57.9167 59.3891 57.9167C59.3801 57.9167 59.3711 57.9167 59.362 57.9167C59.353 57.9167 59.344 57.9167 59.335 57.9167C59.326 57.9167 59.317 57.9167 59.308 57.9167C59.299 57.9167 59.2901 57.9167 59.2811 57.9167C59.2722 57.9167 59.2632 57.9167 59.2543 57.9167C59.2454 57.9167 59.2364 57.9167 59.2275 57.9167C59.2186 57.9167 59.2097 57.9167 59.2008 57.9167C59.192 57.9167 59.1831 57.9167 59.1742 57.9167C59.1654 57.9167 59.1565 57.9167 59.1477 57.9167C59.1388 57.9167 59.13 57.9167 59.1212 57.9167C59.1124 57.9167 59.1036 57.9167 59.0948 57.9167C59.086 57.9167 59.0772 57.9167 59.0684 57.9167C59.0597 57.9167 59.0509 57.9167 59.0422 57.9167C59.0334 57.9167 59.0247 57.9167 59.016 57.9167C59.0073 57.9167 58.9986 57.9167 58.9899 57.9167C58.9812 57.9167 58.9725 57.9167 58.9638 57.9167C58.9551 57.9167 58.9465 57.9167 58.9378 57.9167C58.9292 57.9167 58.9206 57.9167 58.9119 57.9167C58.9033 57.9167 58.8947 57.9167 58.8861 57.9167C58.8775 57.9167 58.8689 57.9167 58.8603 57.9167C58.8518 57.9167 58.8432 57.9167 58.8347 57.9167C58.8261 57.9167 58.8176 57.9167 58.809 57.9167C58.8005 57.9167 58.792 57.9167 58.7835 57.9167C58.775 57.9167 58.7665 57.9167 58.758 57.9167C58.7495 57.9167 58.7411 57.9167 58.7326 57.9167C58.7242 57.9167 58.7157 57.9167 58.7073 57.9167C58.6989 57.9167 58.6905 57.9167 58.682 57.9167C58.6736 57.9167 58.6652 57.9167 58.6569 57.9167C58.6485 57.9167 58.6401 57.9167 58.6318 57.9167C58.6234 57.9167 58.6151 57.9167 58.6067 57.9167C58.5984 57.9167 58.5901 57.9167 58.5818 57.9167C58.5735 57.9167 58.5652 57.9167 58.5569 57.9167C58.5486 57.9167 58.5403 57.9167 58.5321 57.9167C58.5238 57.9167 58.5156 57.9167 58.5074 57.9167C58.4991 57.9167 58.4909 57.9167 58.4827 57.9167C58.4745 57.9167 58.4663 57.9167 58.4581 57.9167C58.4499 57.9167 58.4417 57.9167 58.4336 57.9167C58.4254 57.9167 58.4173 57.9167 58.4092 57.9167C58.401 57.9167 58.3929 57.9167 58.3848 57.9167C58.3767 57.9167 58.3686 57.9167 58.3605 57.9167C58.3524 57.9167 58.3444 57.9167 58.3363 57.9167C58.3282 57.9167 58.3202 57.9167 58.3122 57.9167C58.3041 57.9167 58.2961 57.9167 58.2881 57.9167C58.2801 57.9167 58.2721 57.9167 58.2641 57.9167C58.2561 57.9167 58.2482 57.9167 58.2402 57.9167C58.2322 57.9167 58.2243 57.9167 58.2164 57.9167C58.2084 57.9167 58.2005 57.9167 58.1926 57.9167C58.1847 57.9167 58.1768 57.9167 58.1689 57.9167C58.161 57.9167 58.1532 57.9167 58.1453 57.9167C58.1375 57.9167 58.1296 57.9167 58.1218 57.9167C58.114 57.9167 58.1061 57.9167 58.0983 57.9167C58.0905 57.9167 58.0827 57.9167 58.075 57.9167C58.0672 57.9167 58.0594 57.9167 58.0517 57.9167C58.0439 57.9167 58.0362 57.9167 58.0285 57.9167C58.0207 57.9167 58.013 57.9167 58.0053 57.9167C57.9976 57.9167 57.9899 57.9167 57.9822 57.9167C57.9746 57.9167 57.9669 57.9167 57.9592 57.9167C57.9516 57.9167 57.944 57.9167 57.9363 57.9167C57.9287 57.9167 57.9211 57.9167 57.9135 57.9167C57.9059 57.9167 57.8983 57.9167 57.8907 57.9167C57.8832 57.9167 57.8756 57.9167 57.8681 57.9167C57.8605 57.9167 57.853 57.9167 57.8455 57.9167C57.8379 57.9167 57.8304 57.9167 57.8229 57.9167C57.8154 57.9167 57.808 57.9167 57.8005 57.9167C57.793 57.9167 57.7856 57.9167 57.7781 57.9167C57.7707 57.9167 57.7633 57.9167 57.7558 57.9167C57.7484 57.9167 57.741 57.9167 57.7336 57.9167C57.7262 57.9167 57.7189 57.9167 57.7115 57.9167C57.7041 57.9167 57.6968 57.9167 57.6895 57.9167C57.6821 57.9167 57.6748 57.9167 57.6675 57.9167C57.6602 57.9167 57.6529 57.9167 57.6456 57.9167C57.6383 57.9167 57.631 57.9167 57.6238 57.9167C57.6165 57.9167 57.6093 57.9167 57.6021 57.9167C57.5948 57.9167 57.5876 57.9167 57.5804 57.9167C57.5732 57.9167 57.566 57.9167 57.5588 57.9167C57.5516 57.9167 57.5445 57.9167 57.5373 57.9167C57.5302 57.9167 57.523 57.9167 57.5159 57.9167C57.5088 57.9167 57.5017 57.9167 57.4946 57.9167C57.4875 57.9167 57.4804 57.9167 57.4733 57.9167C57.4663 57.9167 57.4592 57.9167 57.4522 57.9167C57.4451 57.9167 57.4381 57.9167 57.4311 57.9167C57.4241 57.9167 57.4171 57.9167 57.4101 57.9167C57.4031 57.9167 57.3961 57.9167 57.3891 57.9167C57.3822 57.9167 57.3752 57.9167 57.3683 57.9167C57.3614 57.9167 57.3544 57.9167 57.3475 57.9167C57.3406 57.9167 57.3337 57.9167 57.3268 57.9167C57.32 57.9167 57.3131 57.9167 57.3062 57.9167C57.2994 57.9167 57.2925 57.9167 57.2857 57.9167C57.2789 57.9167 57.2721 57.9167 57.2653 57.9167C57.2585 57.9167 57.2517 57.9167 57.2449 57.9167C57.2381 57.9167 57.2314 57.9167 57.2246 57.9167C57.2179 57.9167 57.2112 57.9167 57.2044 57.9167C57.1977 57.9167 57.191 57.9167 57.1843 57.9167C57.1776 57.9167 57.171 57.9167 57.1643 57.9167C57.1576 57.9167 57.151 57.9167 57.1444 57.9167C57.1377 57.9167 57.1311 57.9167 57.1245 57.9167C57.1179 57.9167 57.1113 57.9167 57.1047 57.9167C57.0981 57.9167 57.0916 57.9167 57.085 57.9167C57.0785 57.9167 57.0719 57.9167 57.0654 57.9167C57.0589 57.9167 57.0524 57.9167 57.0459 57.9167C57.0394 57.9167 57.0329 57.9167 57.0264 57.9167C57.02 57.9167 57.0135 57.9167 57.0071 57.9167C57.0006 57.9167 56.9942 57.9167 56.9878 57.9167C56.9814 57.9167 56.975 57.9167 56.9686 57.9167C56.9622 57.9167 56.9558 57.9167 56.9495 57.9167C56.9431 57.9167 56.9368 57.9167 56.9305 57.9167C56.9241 57.9167 56.9178 57.9167 56.9115 57.9167C56.9052 57.9167 56.8989 57.9167 56.8926 57.9167C56.8864 57.9167 56.8801 57.9167 56.8739 57.9167C56.8676 57.9167 56.8614 57.9167 56.8552 57.9167C56.849 57.9167 56.8428 57.9167 56.8366 57.9167C56.8304 57.9167 56.8242 57.9167 56.8181 57.9167C56.8119 57.9167 56.8058 57.9167 56.7996 57.9167C56.7935 57.9167 56.7874 57.9167 56.7813 57.9167C56.7752 57.9167 56.7691 57.9167 56.763 57.9167C56.7569 57.9167 56.7509 57.9167 56.7448 57.9167C56.7388 57.9167 56.7328 57.9167 56.7267 57.9167C56.7207 57.9167 56.7147 57.9167 56.7087 57.9167C56.7028 57.9167 56.6968 57.9167 56.6908 57.9167C56.6849 57.9167 56.6789 57.9167 56.673 57.9167C56.6671 57.9167 56.6611 57.9167 56.6552 57.9167C56.6493 57.9167 56.6434 57.9167 56.6376 57.9167C56.6317 57.9167 56.6258 57.9167 56.62 57.9167C56.6142 57.9167 56.6083 57.9167 56.6025 57.9167C56.5967 57.9167 56.5909 57.9167 56.5851 57.9167C56.5793 57.9167 56.5736 57.9167 56.5678 57.9167C56.562 57.9167 56.5563 57.9167 56.5506 57.9167C56.5448 57.9167 56.5391 57.9167 56.5334 57.9167C56.5277 57.9167 56.522 57.9167 56.5164 57.9167C56.5107 57.9167 56.505 57.9167 56.4994 57.9167C56.4938 57.9167 56.4881 57.9167 56.4825 57.9167C56.4769 57.9167 56.4713 57.9167 56.4657 57.9167C56.4602 57.9167 56.4546 57.9167 56.449 57.9167C56.4435 57.9167 56.4379 57.9167 56.4324 57.9167C56.4269 57.9167 56.4214 57.9167 56.4159 57.9167V59.4167ZM73.3359 59.4167C75.2675 59.4167 76.1561 60.0175 76.5716 60.7429C77.0274 61.5386 77.0671 62.7298 76.7494 64.1979C76.1198 67.107 74.2355 70.4551 73.2639 72.0452L74.5438 72.8273C75.5193 71.2309 77.5275 67.6942 78.2154 64.5152C78.5565 62.9392 78.6111 61.2855 77.8732 59.9973C77.0949 58.6387 75.5808 57.9167 73.3359 57.9167V59.4167ZM72.2689 72.5833H31.2245V74.0833H72.2689V72.5833ZM27.9822 71.8179L7.67135 61.6625L7.00053 63.0042L27.3114 73.1596L27.9822 71.8179ZM54.0711 57.3624L40.6713 50.6625L40.0005 52.0042L53.4003 58.7041L54.0711 57.3624ZM31.2245 72.5833C30.099 72.5833 28.9889 72.3213 27.9822 71.8179L27.3114 73.1596C28.5263 73.7671 29.8661 74.0833 31.2245 74.0833V72.5833ZM73.2639 72.0452C73.0604 72.3782 72.6902 72.5833 72.2689 72.5833V74.0833C73.1814 74.0833 74.0519 73.6323 74.5438 72.8273L73.2639 72.0452ZM56.4159 57.9167C55.6013 57.9167 54.8005 57.7271 54.0711 57.3624L53.4003 58.7041C54.3372 59.1725 55.3676 59.4167 56.4159 59.4167V57.9167Z" fill="#FFC700"/>
<path d="M44.3909 28.9052L60.7716 49.3812C61.5723 50.382 63.0945 50.382 63.8951 49.3812L80.2759 28.9052C80.5349 28.5815 80.7409 28.2245 80.8736 27.8318C81.6125 25.645 83.91 17.91 80.6667 14.6667C76.8698 10.8697 71.5212 11.904 66.9167 14.6667C65.9357 15.2553 64.9052 16.2481 64.0703 17.1595C63.1591 18.1543 61.5077 18.1543 60.5964 17.1595C59.7616 16.2481 58.7311 15.2553 57.75 14.6667C53.1456 11.904 47.797 10.8697 44 14.6667C40.7567 17.91 43.0542 25.645 43.7932 27.8318C43.9259 28.2245 44.1319 28.5815 44.3909 28.9052Z" stroke="#FFC700" stroke-width="1.5" stroke-linejoin="round"/>
</svg>
